<svg xmlns="http://www.w3.org/2000/svg" xmlns:xlink="http://www.w3.org/1999/xlink" width="30" height="30" viewBox="0 0 30 30">
  <defs>
    <clipPath id="clip-iPhone_13_12_Pro_Max_1">
      <rect width="30" height="30"/>
    </clipPath>
  </defs>
  <g id="iPhone_13_12_Pro_Max_1" data-name="iPhone 13, 12 Pro Max – 1" clip-path="url(#clip-iPhone_13_12_Pro_Max_1)">
    <path id="Combined-Shape_18_" d="M31.531,39H17.094A3.048,3.048,0,0,1,14,36V12a3.048,3.048,0,0,1,3.094-3H31.531a3.048,3.048,0,0,1,3.094,3V36A3.048,3.048,0,0,1,31.531,39ZM17.094,11a1.016,1.016,0,0,0-1.031,1V36a1.016,1.016,0,0,0,1.031,1H31.531a1.016,1.016,0,0,0,1.031-1V12a1.016,1.016,0,0,0-1.031-1Zm7.219,25a1.5,1.5,0,1,1,1.547-1.5A1.524,1.524,0,0,1,24.313,36ZM23.281,19H19.156V15h4.125Zm2.063-4h4.125v4H25.344ZM23.281,25H19.156V21h4.125Z" transform="translate(-9.313 -9)" fill-rule="evenodd"/>
  </g>
</svg>
