<svg xmlns="http://www.w3.org/2000/svg" xmlns:xlink="http://www.w3.org/1999/xlink" width="30" height="30" viewBox="0 0 30 30">
  <defs>
    <clipPath id="clip-iPhone_13_12_Pro_Max_1">
      <rect width="30" height="30"/>
    </clipPath>
  </defs>
  <g id="iPhone_13_12_Pro_Max_1" data-name="iPhone 13, 12 Pro Max – 1" clip-path="url(#clip-iPhone_13_12_Pro_Max_1)">
    <path id="Aware_Mode" data-name="Aware Mode" d="M21.908,34a5.624,5.624,0,0,1-5.624-5.624V26.5h1.875v1.875a3.75,3.75,0,0,0,3.75,3.75c3.272,0,5.1-4.05,7.218-8.737.412-.937.825-1.875,1.265-2.737,1.012-2.109,2.006-5.2,1.781-7.565a8.08,8.08,0,0,0-7-7.143,7.9,7.9,0,0,0-6.224,1.969,8.043,8.043,0,0,0-2.662,5.981H14.408a9.918,9.918,0,0,1,3.3-7.387,9.758,9.758,0,0,1,7.687-2.437,9.861,9.861,0,0,1,8.7,8.83c.337,3.459-1.415,7.424-1.959,8.558-.431.937-.834,1.8-1.247,2.7C28.563,29.216,26.407,34,21.908,34ZM10.162,28.841l-1.294-1.35a8.521,8.521,0,0,0,0-12.5l1.294-1.359a10.4,10.4,0,0,1,0,15.214ZM6.844,25.7,5.55,24.332a4.209,4.209,0,0,0,0-6.187l1.284-1.369a6.084,6.084,0,0,1,0,8.915Zm14.6-.141H20.033V23.685h1.406a2.343,2.343,0,1,0,0-4.687H19.1V13.842A5.156,5.156,0,1,1,28.6,16.608l-1.584-1a3.281,3.281,0,1,0-6.046-1.762v3.281h.469a4.218,4.218,0,1,1,0,8.437Z" transform="translate(-4.55 -3.996)" fill="#242424"/>
  </g>
</svg>
