<svg xmlns="http://www.w3.org/2000/svg" xmlns:xlink="http://www.w3.org/1999/xlink" width="30" height="30" viewBox="0 0 30 30">
  <defs>
    <clipPath id="clip-iPhone_13_12_Pro_Max_1">
      <rect width="30" height="30"/>
    </clipPath>
  </defs>
  <g id="iPhone_13_12_Pro_Max_1" data-name="iPhone 13, 12 Pro Max – 1" clip-path="url(#clip-iPhone_13_12_Pro_Max_1)">
    <path id="Aware_Mode" data-name="Aware Mode" d="M21.909,34a5.625,5.625,0,0,1-5.625-5.625V26.5h1.875v1.875a3.75,3.75,0,0,0,3.75,3.75c3.272,0,5.1-4.05,7.219-8.738.413-.938.825-1.875,1.266-2.738,1.013-2.109,2.006-5.2,1.781-7.566a8.081,8.081,0,0,0-7-7.144,7.9,7.9,0,0,0-6.225,1.969,8.044,8.044,0,0,0-2.663,5.981H14.409A9.919,9.919,0,0,1,17.71,6.5,9.759,9.759,0,0,1,25.4,4.065,9.863,9.863,0,0,1,34.1,12.9c.338,3.459-1.416,7.425-1.959,8.559-.431.938-.834,1.8-1.247,2.7C28.566,29.219,26.41,34,21.909,34ZM10.163,28.844l-1.294-1.35a8.522,8.522,0,0,0,0-12.5l1.294-1.359a10.4,10.4,0,0,1,0,15.216ZM6.844,25.7,5.55,24.334a4.209,4.209,0,0,0,0-6.188l1.284-1.369a6.084,6.084,0,0,1,0,8.916Zm14.6-.141H20.034V23.687h1.406a2.344,2.344,0,0,0,0-4.688H19.1V13.844A5.156,5.156,0,1,1,28.6,16.609l-1.584-1a3.281,3.281,0,1,0-6.047-1.763v3.281h.469a4.219,4.219,0,0,1,0,8.438Z" transform="translate(-4.845 -3.996)" fill="#fff"/>
  </g>
</svg>
