<svg xmlns="http://www.w3.org/2000/svg" xmlns:xlink="http://www.w3.org/1999/xlink" width="30" height="30" viewBox="0 0 30 30">
  <defs>
    <clipPath id="clip-iPhone_13_12_Pro_Max_1">
      <rect width="30" height="30"/>
    </clipPath>
  </defs>
  <g id="iPhone_13_12_Pro_Max_1" data-name="iPhone 13, 12 Pro Max – 1" clip-path="url(#clip-iPhone_13_12_Pro_Max_1)">
    <g id="feature3-" transform="translate(-2 -2)">
      <g id="container_48x48">
        <rect id="Rectangle_1123" data-name="Rectangle 1123" width="34" height="34" fill="none"/>
      </g>
      <g id="outline" transform="translate(3.386 2.149)">
        <g id="Group_14414" data-name="Group 14414">
          <path id="Path_877" data-name="Path 877" d="M40.222,29.56H37.747V25.848c0-7.169-4.684-12.373-11.133-12.373a11.685,11.685,0,0,0-5.582,1.408L19.846,12.71A14.163,14.163,0,0,1,26.611,11c7.759,0,13.611,6.383,13.611,14.848Zm-24.747,0H13V25.848A16.934,16.934,0,0,1,17.169,14.63l1.857,1.636a14.461,14.461,0,0,0-3.552,9.585Z" transform="translate(-13 -11)" fill="#000106"/>
        </g>
        <path id="Path_878" data-name="Path 878" d="M20.475,25.9H18V24.454C18,19.792,21.33,16,25.424,16a6.629,6.629,0,0,1,3.278.865l-1.209,2.159a4.187,4.187,0,0,0-2.069-.549c-2.73,0-4.95,2.682-4.95,5.981Zm12.373-1.237H30.373V24.4a5.941,5.941,0,0,0-1.325-3.808L31,19.078a8.4,8.4,0,0,1,1.84,5.322Z" transform="translate(-11.813 -9.813)" fill="#000106"/>
        <rect id="Rectangle_1124" data-name="Rectangle 1124" width="2.475" height="2.475" transform="translate(0 21.035)" fill="#000106"/>
        <rect id="Rectangle_1125" data-name="Rectangle 1125" width="2.475" height="2.475" transform="translate(24.748 21.035)" fill="#000106"/>
        <rect id="Rectangle_1126" data-name="Rectangle 1126" width="2.475" height="8.662" transform="translate(6.187 18.56)" fill="#000106"/>
        <rect id="Rectangle_1127" data-name="Rectangle 1127" width="2.475" height="8.662" transform="translate(18.56 18.56)" fill="#000106"/>
        <rect id="Rectangle_1128" data-name="Rectangle 1128" width="2.475" height="14.848" transform="translate(12.373 14.848)" fill="#000106"/>
      </g>
    </g>
  </g>
</svg>
