<svg xmlns="http://www.w3.org/2000/svg" width="34.832" height="27.18" viewBox="0 0 34.832 27.18">
  <defs>
    <style>
      .cls-1 {
        fill: #e10a0a;
        stroke: #e10a0a;
        stroke-width: 0.9px;
      }
    </style>
  </defs>
  <g id="Group_6418" data-name="Group 6418" transform="translate(-8.55 -12.498)">
    <g id="Group_6417" data-name="Group 6417">
      <path id="Path_5194" data-name="Path 5194" class="cls-1" d="M141.417,278.213a1.895,1.895,0,0,1-1.339-3.228l.88-.88a1.894,1.894,0,1,1,2.678,2.679l-.88.879A1.882,1.882,0,0,1,141.417,278.213Zm.88-3.832a1.051,1.051,0,0,0-.748.309l-.88.88a1.058,1.058,0,1,0,1.5,1.5l.88-.88a1.058,1.058,0,0,0-.749-1.805Z" transform="translate(-123.824 -245.246)"/>
      <path id="Path_5195" data-name="Path 5195" class="cls-1" d="M163.834,300.611a1.882,1.882,0,0,1-1.339-.557h0a1.9,1.9,0,0,1,0-2.679l.88-.88a1.894,1.894,0,1,1,2.678,2.678l-.88.88A1.882,1.882,0,0,1,163.834,300.611Zm.88-3.829a1.052,1.052,0,0,0-.749.31l-.88.88a1.06,1.06,0,0,0,0,1.5h0a1.057,1.057,0,0,0,1.5,0l.88-.88a1.059,1.059,0,0,0-.748-1.806Z" transform="translate(-144.154 -265.558)"/>
      <path id="Path_5196" data-name="Path 5196" class="cls-1" d="M186.3,323.085a1.882,1.882,0,0,1-1.339-.557h0a1.9,1.9,0,0,1,0-2.678l.88-.88a1.894,1.894,0,1,1,2.679,2.678l-.88.88A1.881,1.881,0,0,1,186.3,323.085Zm.88-3.831a1.057,1.057,0,0,0-.749.309l-.88.881a1.057,1.057,0,0,0,0,1.5h0a1.06,1.06,0,0,0,1.5,0l.88-.88a1.058,1.058,0,0,0-.748-1.806Z" transform="translate(-164.537 -285.946)"/>
      <path id="Path_5197" data-name="Path 5197" class="cls-1" d="M208.791,345.555a1.884,1.884,0,0,1-1.338-.557h0a1.9,1.9,0,0,1,0-2.678l.88-.88a1.894,1.894,0,1,1,2.679,2.678l-.88.88A1.885,1.885,0,0,1,208.791,345.555Zm-.748-1.145a1.06,1.06,0,0,0,1.5,0l.88-.88a1.058,1.058,0,1,0-1.5-1.5l-.88.88A1.06,1.06,0,0,0,208.043,344.41Z" transform="translate(-184.938 -306.327)"/>
      <path id="Path_5198" data-name="Path 5198" class="cls-1" d="M209.336,172.542a.417.417,0,0,1-.29-.116l-1.53-1.475a1.88,1.88,0,0,0-1.23-.715.42.42,0,0,1,.082-.836,2.67,2.67,0,0,1,1.733.95l1.524,1.47a.418.418,0,0,1-.29.719Z" transform="translate(-184.039 -150.768)"/>
      <path id="Path_5199" data-name="Path 5199" class="cls-1" d="M131.456,250.128a.417.417,0,0,1-.29-.117L129.81,248.7a3.229,3.229,0,0,1-.91-1.75.418.418,0,0,1,.824-.142,2.394,2.394,0,0,0,.672,1.3l1.35,1.3a.418.418,0,0,1-.291.719Z" transform="translate(-114.178 -220.676)"/>
      <path id="Path_5200" data-name="Path 5200" class="cls-1" d="M224.2,183.681a.417.417,0,0,1-.286-.113l-6.164-5.787-1.983,1.983a1.894,1.894,0,1,1-2.679-2.678l2.2-2.2a.385.385,0,0,1,.036-.033l1.068-.845a3.4,3.4,0,0,1,4.792.018l4.948,4.947h0a2.249,2.249,0,0,1,0,3.175l-.023.02-1.641,1.415A.414.414,0,0,1,224.2,183.681Zm-6.462-6.9a.417.417,0,0,1,.286.113l6.187,5.81,1.344-1.159a1.41,1.41,0,0,0-.01-1.982l-4.947-4.947a2.569,2.569,0,0,0-3.629,0,.4.4,0,0,1-.036.033l-1.067.844-2.186,2.187a1.059,1.059,0,0,0,1.5,1.5l2.2-2.2c.01-.01.019-.021.028-.033l.016-.018a.421.421,0,0,1,.294-.141Z" transform="translate(-190.045 -154.063)"/>
      <path id="Path_5201" data-name="Path 5201" class="cls-1" d="M266.723,215.153a3.7,3.7,0,0,1-2.553-1.027l-.093-.084a.418.418,0,1,1,.576-.606l.093.085a2.858,2.858,0,0,0,4.008-.053.418.418,0,1,1,.591.592A3.7,3.7,0,0,1,266.723,215.153Z" transform="translate(-236.68 -190.604)"/>
      <path id="Path_5202" data-name="Path 5202" class="cls-1" d="M245.972,277.785a1.888,1.888,0,0,1-1.339-.557l-.851-.822a.418.418,0,1,1,.58-.6l.856.827a1.058,1.058,0,0,0,1.5-1.492.418.418,0,1,1,.592-.591,1.058,1.058,0,0,0,1.5-1.5.418.418,0,1,1,.591-.592,1.058,1.058,0,1,0,1.5-1.5.418.418,0,0,1,.591-.591,1.058,1.058,0,1,0,1.5-1.492l-2.1-1.993a.418.418,0,0,1,.576-.606l2.1,2,.008.007a1.895,1.895,0,0,1-1.339,3.233,1.865,1.865,0,0,1-.2-.011,5.172,5.172,0,0,0-2.629,3.631,1.791,1.791,0,0,0-2.015,2.015,1.892,1.892,0,0,1-1.409.629Z" transform="translate(-218.268 -238.559)"/>
      <path id="Path_5203" data-name="Path 5203" class="cls-1" d="M290.165,282.467a.416.416,0,0,1-.284-.111l-3.136-2.914a.418.418,0,1,1,.569-.613l3.135,2.915a.417.417,0,0,1-.284.723Z" transform="translate(-257.246 -249.933)"/>
      <path id="Path_5204" data-name="Path 5204" class="cls-1" d="M267.7,304.954a.416.416,0,0,1-.285-.111l-3.135-2.913a.418.418,0,1,1,.569-.612l3.135,2.914a.418.418,0,0,1-.284.723Z" transform="translate(-236.867 -270.335)"/>
      <path id="Path_5205" data-name="Path 5205" class="cls-1" d="M247.091,329.471a.416.416,0,0,1-.285-.111l-2.927-2.721a.418.418,0,1,1,.569-.612l2.927,2.721a.418.418,0,0,1-.284.723Z" transform="translate(-218.363 -292.747)"/>
      <path id="Path_5206" data-name="Path 5206" class="cls-1" d="M288.161,123.027a.419.419,0,0,1-.293-.121l-8.286-8.286a.418.418,0,0,1,0-.592l5.108-5.108a.419.419,0,0,1,.591,0l8.286,8.287a.417.417,0,0,1,0,.591l-5.108,5.108A.419.419,0,0,1,288.161,123.027Zm-7.7-8.7,7.7,7.695,4.515-4.514-7.7-7.7Z" transform="translate(-250.758 -95.796)"/>
      <path id="Path_5207" data-name="Path 5207" class="cls-1" d="M72.866,123.009a.419.419,0,0,1-.3-.123l-5.108-5.108a.417.417,0,0,1,0-.591l8.286-8.287a.419.419,0,0,1,.591,0l5.108,5.108a.418.418,0,0,1,0,.592l-8.288,8.288A.419.419,0,0,1,72.866,123.009Zm-4.515-5.521L72.866,122l7.7-7.695-4.515-4.515Z" transform="translate(-58.34 -95.778)"/>
    </g>
  </g>
</svg>
