<svg xmlns="http://www.w3.org/2000/svg" width="41.93" height="41.93" viewBox="0 0 41.93 41.93">
  <defs>
    <style>
      .cls-1 {
        fill: #fdf3f3;
      }

      .cls-2 {
        fill: #e10a0a;
        stroke: #e10a0a;
        stroke-width: 0.3px;
      }
    </style>
  </defs>
  <g id="Group_8185" data-name="Group 8185" transform="translate(-446 -500)">
    <circle id="Ellipse_52" data-name="Ellipse 52" class="cls-1" cx="20.965" cy="20.965" r="20.965" transform="translate(446 500)"/>
    <path id="Path_5244" data-name="Path 5244" class="cls-2" d="M22.95,23.158a2.356,2.356,0,0,1,.755,1.68,2.444,2.444,0,0,1-.74,1.695c-.21.219-.427.432-.636.632a11.336,11.336,0,0,0-.858.887c0,.01-.014.014-.019.024a3.693,3.693,0,0,1-2.826,1.215c-.1,0-.2,0-.309-.01a11.99,11.99,0,0,1-4.311-1.273A23.038,23.038,0,0,1,6.329,22a21.151,21.151,0,0,1-3.746-6.254,8.584,8.584,0,0,1-.627-3.636A3.59,3.59,0,0,1,3.019,9.831L4.685,8.15l.01-.01A2.4,2.4,0,0,1,6.361,7.42,2.321,2.321,0,0,1,8,8.141c.318.294.627.608.921.911.147.157.3.313.456.465l1.338,1.338a2.246,2.246,0,0,1,0,3.39c-.137.137-.275.28-.412.417-.362.366-.735.75-1.136,1.116a9.958,9.958,0,0,0,1.324,2.088,16.838,16.838,0,0,0,4.031,3.674c.142.089.309.171.485.26.123.063.251.128.376.2l1.548-1.543a2.362,2.362,0,0,1,1.676-.755,2.286,2.286,0,0,1,1.656.759h0Zm-.94.926-2.7-2.7-.01-.01a1,1,0,0,0-.706-.357,1.109,1.109,0,0,0-.74.366l-1.676,1.676a1,1,0,0,1-1.23.215c-.019-.01-.039-.024-.058-.034-.142-.089-.309-.171-.485-.26a6.793,6.793,0,0,1-.6-.328,17.968,17.968,0,0,1-4.349-3.959l0,0a10.671,10.671,0,0,1-1.582-2.582l-.014-.043a1,1,0,0,1,.256-1.111c0-.01.014-.014.024-.024.427-.381.817-.774,1.23-1.2.142-.137.28-.28.422-.422a.936.936,0,0,0,0-1.519L8.446,10.453c-.157-.162-.313-.318-.465-.475-.3-.309-.583-.6-.882-.878l-.014-.014a1.05,1.05,0,0,0-.716-.342,1.119,1.119,0,0,0-.745.347L3.952,10.761a2.243,2.243,0,0,0-.675,1.454,7.012,7.012,0,0,0,.55,3.067,19.885,19.885,0,0,0,3.527,5.873,21.7,21.7,0,0,0,7.23,5.665,10.6,10.6,0,0,0,3.821,1.145c.072,0,.152,0,.224,0a2.364,2.364,0,0,0,1.842-.779,13.065,13.065,0,0,1,.945-.979c.21-.2.407-.393.6-.6A.967.967,0,0,0,22.009,24.084Z" transform="translate(454.145 502.61)"/>
  </g>
</svg>
