<svg xmlns="http://www.w3.org/2000/svg" width="21.387" height="21.486" viewBox="0 0 21.387 21.486">
  <defs>
    <style>
      .cls-1 {
        fill: #e10a0a;
        stroke: #e10a0a;
        stroke-width: 0.6px;
      }
    </style>
  </defs>
  <path id="Path_5249" data-name="Path 5249" class="cls-1" d="M22,22.449a2.25,2.25,0,0,1,.721,1.6,2.334,2.334,0,0,1-.707,1.619c-.2.21-.408.412-.608.6a10.824,10.824,0,0,0-.82.847c0,.009-.014.014-.018.023a3.527,3.527,0,0,1-2.7,1.16c-.094,0-.2,0-.295-.009a11.45,11.45,0,0,1-4.116-1.216,22,22,0,0,1-7.33-5.74A20.2,20.2,0,0,1,2.554,15.37a8.2,8.2,0,0,1-.6-3.472A3.429,3.429,0,0,1,2.97,9.722l1.591-1.6.009-.009A2.293,2.293,0,0,1,6.161,7.42a2.217,2.217,0,0,1,1.568.688c.3.281.6.58.879.87.14.15.29.3.435.444L10.322,10.7a2.145,2.145,0,0,1,0,3.237c-.131.131-.262.267-.394.4-.345.35-.7.716-1.084,1.066A9.51,9.51,0,0,0,10.108,17.4,16.08,16.08,0,0,0,13.957,20.9c.136.085.295.163.463.249.117.06.239.122.359.186l1.478-1.473a2.256,2.256,0,0,1,1.6-.721,2.183,2.183,0,0,1,1.582.725h0Zm-.9.884-2.579-2.579-.009-.009a.955.955,0,0,0-.675-.341,1.059,1.059,0,0,0-.707.35l-1.6,1.6a.955.955,0,0,1-1.174.2c-.018-.009-.037-.023-.055-.032-.136-.085-.295-.163-.463-.249a6.486,6.486,0,0,1-.576-.313,17.159,17.159,0,0,1-4.153-3.78l0,0A10.19,10.19,0,0,1,7.6,15.715l-.014-.041a.951.951,0,0,1,.244-1.061c0-.009.014-.014.023-.023.408-.364.78-.739,1.174-1.142.136-.131.267-.267.4-.4a.894.894,0,0,0,0-1.45L8.153,10.316c-.15-.154-.3-.3-.444-.454-.285-.295-.557-.571-.843-.838l-.014-.014a1,1,0,0,0-.684-.327,1.068,1.068,0,0,0-.711.332l-1.6,1.6A2.142,2.142,0,0,0,3.217,12a6.7,6.7,0,0,0,.525,2.929A18.99,18.99,0,0,0,7.11,20.536a20.725,20.725,0,0,0,6.9,5.41,10.125,10.125,0,0,0,3.649,1.094c.069,0,.145,0,.214,0a2.258,2.258,0,0,0,1.759-.744,12.477,12.477,0,0,1,.9-.935c.2-.2.389-.375.571-.571A.923.923,0,0,0,21.106,23.333Z" transform="translate(-1.637 -7.12)"/>
</svg>
