<svg xmlns="http://www.w3.org/2000/svg" width="39.92" height="36.484" viewBox="0 0 39.92 36.484">
    <g data-name="Group 6037">
        <path data-name="Path 664" d="M573.353 219.089a4.762 4.762 0 1 0 4.762 4.762 4.767 4.767 0 0 0-4.762-4.762zm0 7.07a2.308 2.308 0 1 1 2.308-2.308 2.309 2.309 0 0 1-2.308 2.308z" transform="translate(-541.579 -192.128)" style="fill:#e10a0a"/>
        <path data-name="Path 665" d="M597.861 216.551H568l-1.413-5.923a1.224 1.224 0 0 0-1.2-.943h-5a1.228 1.228 0 1 0 0 2.457h4.028l.052.218 4.922 20.6a1.227 1.227 0 0 0 1.2.94h23.577a1.222 1.222 0 0 0 1.193-.929l3.687-14.9a1.229 1.229 0 0 0-1.193-1.522zm-4.647 14.894h-21.649l-.052-.221-2.921-12.216h27.7z" transform="translate(-559.169 -209.685)" style="fill:#e10a0a"/>
        <path data-name="Path 666" d="M566.958 219.089a4.762 4.762 0 1 0 4.765 4.762 4.766 4.766 0 0 0-4.765-4.762zm0 7.07a2.308 2.308 0 1 1 2.308-2.308 2.309 2.309 0 0 1-2.308 2.308z" transform="translate(-553.512 -192.128)" style="fill:#e10a0a"/>
    </g>
</svg>
