<svg id="Group_6328" data-name="Group 6328" xmlns="http://www.w3.org/2000/svg" width="52.228" height="52.228" viewBox="0 0 52.228 52.228">
  <defs>
    <style>
      .cls-1 {
        fill: #fdf3f3;
      }

      .cls-2 {
        fill: #e10a0a;
      }
    </style>
  </defs>
  <circle id="Ellipse_52" data-name="Ellipse 52" class="cls-1" cx="26.114" cy="26.114" r="26.114"/>
  <path id="icon-chat-help" class="cls-2" d="M14.153,0A13.612,13.612,0,0,1,27.92,13.475,13.6,13.6,0,0,1,14.153,26.867a14.722,14.722,0,0,1-3.832-.5L3.309,27.612a1.033,1.033,0,0,1-1.164-1.3l1.079-4.639A12.929,12.929,0,0,1,.3,13.475,13.65,13.65,0,0,1,14.153,0Zm0,2.043A11.582,11.582,0,0,0,2.4,13.475a10.943,10.943,0,0,0,2.668,7.234,1.034,1.034,0,0,1,.255.966L4.473,25.32l5.677-.966c.17-.083.341,0,.511,0a12.7,12.7,0,0,0,3.492.5,11.577,11.577,0,0,0,11.7-11.376,11.569,11.569,0,0,0-11.7-11.431Z" transform="translate(11.974 12.276)"/>
</svg>
