<svg xmlns="http://www.w3.org/2000/svg" width="38.798" height="30.108" viewBox="0 0 38.798 30.108">
    <g data-name="Group 5252">
        <g data-name="Group 4558">
            <path data-name="Path 4120" d="M505.237 1302.094a3.066 3.066 0 0 0 6.132 0" transform="translate(-498.104 -1293.377)" style="fill:none;stroke:#e10a0a;stroke-linejoin:round;stroke-width:2px"/>
            <path data-name="Path 4121" d="M510.473 1302.094a3.067 3.067 0 0 0 6.133 0" transform="translate(-497.207 -1293.377)" style="fill:none;stroke:#e10a0a;stroke-linejoin:round;stroke-width:2px"/>
            <path data-name="Path 4122" d="M515.71 1302.094a3.067 3.067 0 0 0 6.133 0" transform="translate(-496.311 -1293.377)" style="fill:none;stroke:#e10a0a;stroke-linejoin:round;stroke-width:2px"/>
            <path data-name="Path 4123" d="M520.947 1302.094a3.066 3.066 0 0 0 6.132 0" transform="translate(-495.415 -1293.377)" style="fill:none;stroke:#e10a0a;stroke-linejoin:round;stroke-width:2px"/>
            <path data-name="Path 4124" d="M506.133 1303.222a3.067 3.067 0 0 1-6.133 0l8-7.717h21.156l7.644 7.642v.075a3.067 3.067 0 0 1-6.133 0" transform="translate(-499 -1294.505)" style="fill:none;stroke:#e10a0a;stroke-linejoin:round;stroke-width:2px"/>
        </g>
        <path data-name="Path 4125" d="M533.006 1306.842v14.83h-30.181v-14.83" transform="translate(-498.516 -1292.565)" style="fill:none;stroke:#e10a0a;stroke-linejoin:round;stroke-width:2px"/>
        <path data-name="Rectangle 2333" transform="translate(23.743 15.436)" style="fill:none;stroke:#e10a0a;stroke-linejoin:round;stroke-width:2px" d="M0 0h5.986v5.986H0z"/>
        <path data-name="Rectangle 2334" transform="translate(9.056 15.436)" style="fill:none;stroke:#e10a0a;stroke-linejoin:round;stroke-width:2px" d="M0 0h8.419v13.672H0z"/>
    </g>
</svg>
