<svg xmlns="http://www.w3.org/2000/svg" width="48.971" height="30.643" viewBox="0 0 48.971 30.643">
    <g data-name="Group 5997">
        <path data-name="Line 1644" transform="translate(13.795 23.9)" style="fill:none;stroke:#e10a0a;stroke-linejoin:round;stroke-width:2px" d="M22.047 0H0"/>
        <path data-name="Path 4170" d="M505.869 1014.785h29.511v7.631h3.883l6.7 6.7a4.37 4.37 0 0 1 1.28 3.091v5.474h-3.6" transform="translate(-499.277 -1013.785)" style="fill:none;stroke:#e10a0a;stroke-linejoin:round;stroke-width:2px"/>
        <path data-name="Line 1645" transform="translate(0 23.9)" style="fill:none;stroke:#e10a0a;stroke-linejoin:round;stroke-width:2px" d="M5.268 0H0"/>
        <path data-name="Path 4171" d="M513.51 1035.773a4.456 4.456 0 1 1-4.456-4.455 4.457 4.457 0 0 1 4.456 4.455z" transform="translate(-499.523 -1010.587)" style="fill:none;stroke:#e10a0a;stroke-linejoin:round;stroke-width:2px"/>
        <path data-name="Path 4172" d="M539.13 1035.773a4.456 4.456 0 1 1-4.456-4.455 4.457 4.457 0 0 1 4.456 4.455z" transform="translate(-494.567 -1010.587)" style="fill:none;stroke:#e10a0a;stroke-linejoin:round;stroke-width:2px"/>
        <path data-name="Path 4173" d="M530.6 1020.956v6.436h10.054" transform="translate(-494.494 -1012.591)" style="fill:none;stroke:#e10a0a;stroke-linejoin:round;stroke-width:2px"/>
        <path data-name="Line 1646" transform="translate(0 5.6)" style="fill:none;stroke:#e10a0a;stroke-linejoin:round;stroke-width:2px" d="M0 0h19.115"/>
        <path data-name="Line 1647" transform="translate(3.296 10.201)" style="fill:none;stroke:#e10a0a;stroke-linejoin:round;stroke-width:2px" d="M0 0h19.115"/>
        <path data-name="Line 1648" transform="translate(6.592 14.801)" style="fill:none;stroke:#e10a0a;stroke-linejoin:round;stroke-width:2px" d="M0 0h19.115"/>
    </g>
</svg>
