<svg xmlns="http://www.w3.org/2000/svg" width="91.773" height="54.48" viewBox="0 0 91.773 54.48">
  <defs>
    <style>
      .cls-1 {
        fill: #e00a0a;
      }
    </style>
  </defs>
  <path id="Path_5185" data-name="Path 5185" class="cls-1" d="M1669.14,196.674c-.149,0-.3,0-.445,0a20.653,20.653,0,0,1-10.166-2.678,24.176,24.176,0,0,1-7.373-6.575,28.6,28.6,0,0,1-4.4-8.741,31.288,31.288,0,0,1-1.454-9.225,30.274,30.274,0,0,1,1.61-9.665,29.1,29.1,0,0,1,4.6-8.708,24.345,24.345,0,0,1,7.391-6.381,21.108,21.108,0,0,1,20.261.17,24.787,24.787,0,0,1,7.42,6.695,29.09,29.09,0,0,1,4.392,8.769,30.971,30.971,0,0,1,1.454,9.081,30.134,30.134,0,0,1-1.61,9.706,29.021,29.021,0,0,1-4.606,8.676,24.28,24.28,0,0,1-7.381,6.379A20.126,20.126,0,0,1,1669.14,196.674Zm-.291-3.915h.025a16.3,16.3,0,0,0,8.065-2,20.35,20.35,0,0,0,6.184-5.349,25.17,25.17,0,0,0,3.994-7.528,26.23,26.23,0,0,0,1.408-8.447,27.154,27.154,0,0,0-1.276-7.936,25.319,25.319,0,0,0-3.81-7.614,20.84,20.84,0,0,0-6.214-5.618,17.169,17.169,0,0,0-16.438-.131,20.408,20.408,0,0,0-6.168,5.338,25.238,25.238,0,0,0-3.991,7.556,26.465,26.465,0,0,0-1.41,8.421,27.388,27.388,0,0,0,1.278,8.074,24.715,24.715,0,0,0,3.8,7.569,20.255,20.255,0,0,0,6.171,5.51,16.607,16.607,0,0,0,8.356,2.16Zm36.241,2.964-3.355-2.016,30.4-50.551,3.354,2.016Zm23.236-1.607h-.017a8.748,8.748,0,0,1,.017-17.5h.008a8.764,8.764,0,0,1,8.745,8.764l0,0A8.759,8.759,0,0,1,1728.326,194.116Zm0-13.583a4.835,4.835,0,0,0-.01,9.67h.01a4.84,4.84,0,0,0,4.837-4.825l1.956,0-1.956,0a4.837,4.837,0,0,0-4.833-4.846Zm-19.433-18.311h-.022a8.741,8.741,0,1,1,8.77-8.729l0,.008a8.743,8.743,0,0,1-8.744,8.721Zm0-13.575a4.832,4.832,0,0,0-.01,9.663h.011a4.828,4.828,0,0,0,4.831-4.819V153.3a4.837,4.837,0,0,0-4.833-4.656Z" transform="translate(-1645.307 -142.193)"/>
</svg>
