<svg xmlns="http://www.w3.org/2000/svg" width="47.503" height="72.061" viewBox="0 0 47.503 72.061">
  <defs>
    <style>
      .cls-1 {
        fill: none;
        stroke: #e10a0a;
        stroke-width: 3.5px;
      }
    </style>
  </defs>
  <path id="question-mark-icon" class="cls-1" d="M23.857,0C13.878,0,7.414,4.089,2.34,11.381a3,3,0,0,0,.647,4.11L8.38,19.58a3,3,0,0,0,4.157-.519c3.132-3.923,5.455-6.182,10.347-6.182,3.846,0,8.6,2.475,8.6,6.205,0,2.82-2.328,4.268-6.125,6.4-4.429,2.483-10.289,5.573-10.289,13.3v1.224a3,3,0,0,0,3,3h9.061a3,3,0,0,0,3-3v-.722C30.135,33.928,45.8,33.7,45.8,19.2,45.8,8.284,34.469,0,23.857,0ZM22.6,51.24a8.661,8.661,0,1,0,8.661,8.66,8.791,8.791,0,0,0-2.751-6.326A8.465,8.465,0,0,0,22.6,51.24Z" transform="translate(-0.044 1.75)"/>
</svg>
