<svg xmlns="http://www.w3.org/2000/svg" width="33.245" height="33.245" viewBox="0 0 33.245 33.245">
    <g data-name="Group 6067">
        <g data-name="Group 6062">
            <path data-name="Path 5087" d="M3 65.72a2.879 2.879 0 0 1-2.113-.883 2.97 2.97 0 0 1 0-4.227L11.45 50.043a.379.379 0 1 1 .536.536L1.419 61.115a2.141 2.141 0 0 0-.662 1.609 2.262 2.262 0 0 0 2.271 2.271 2.242 2.242 0 0 0 1.609-.662l10.535-10.6a.379.379 0 1 1 .536.536L5.141 64.836A3 3 0 0 1 3 65.72z" transform="translate(.75 -33.225)" style="fill:#e10a0a;stroke:#e10a0a;stroke-width:1.5px"/>
        </g>
        <g data-name="Group 6065">
            <g data-name="Group 6063">
                <path data-name="Path 5088" d="M54.44 25.92a.358.358 0 0 1-.252-.095.363.363 0 0 1 0-.536l7.034-7.034-1.609-1.64-7.033 7.034a.379.379 0 0 1-.536-.536l7.318-7.318a.358.358 0 0 1 .252-.095.358.358 0 0 1 .252.095l2.145 2.145a.363.363 0 0 1 0 .536l-7.286 7.318a.307.307 0 0 1-.285.126z" transform="translate(-34.797 -9.795)" style="fill:#e10a0a;stroke:#e10a0a;stroke-width:1.5px"/>
            </g>
            <g data-name="Group 6064">
                <path data-name="Path 5089" d="M77.392 7.917 74.9 5.425 76.1 2.4 79.915 0l2.9 2.9-2.4 3.817zm-1.609-2.681 1.8 1.8 2.334-.915 1.956-3.091L79.789.946 76.7 2.9z" transform="translate(-50.525 .953)" style="fill:#e10a0a;stroke:#e10a0a;stroke-width:1.5px"/>
            </g>
        </g>
        <g data-name="Group 6066">
            <path data-name="Path 5090" d="M28.122 32.27a3.22 3.22 0 0 1-2.3-.946L7.967 13.471a6.347 6.347 0 0 1-5.93-1.671A6.248 6.248 0 0 1 .365 6l.158-.662 2.46 2.46a1.82 1.82 0 0 0 1.8.473 3.748 3.748 0 0 0 2.65-2.65 1.894 1.894 0 0 0-.473-1.8L4.5 1.359l.659-.159a6.247 6.247 0 0 1 5.772 1.735 6.288 6.288 0 0 1 1.672 5.9l17.822 17.852a3.313 3.313 0 0 1 0 4.637 3.22 3.22 0 0 1-2.303.946zM8.187 12.619l18.169 18.168a2.52 2.52 0 1 0 3.564-3.564L11.752 9.055l.063-.221A5.513 5.513 0 0 0 10.4 3.44a5.577 5.577 0 0 0-4.389-1.608l1.451 1.451a2.569 2.569 0 0 1 .662 2.523A4.485 4.485 0 0 1 4.97 8.96a2.663 2.663 0 0 1-2.523-.66L1 6.847a5.408 5.408 0 0 0 1.577 4.384 5.513 5.513 0 0 0 5.394 1.419z" transform="translate(.605 .225)" style="fill:#e10a0a;stroke:#e10a0a;stroke-width:1.5px"/>
        </g>
    </g>
</svg>
