<svg xmlns="http://www.w3.org/2000/svg" width="64.718" height="75.167" viewBox="0 0 64.718 75.167">
  <defs>
    <style>
      .cls-1 {
        fill: #e10a0a;
        stroke: #e10a0a;
        stroke-width: 0.8px;
      }
    </style>
  </defs>
  <path id="privacy-policy-icon" class="cls-1" d="M66.937,13.23a1.769,1.769,0,0,0-1.263-.608c-.177,0-17.654-.707-29.122-10.219a1.769,1.769,0,0,0-2.257,0C22.828,11.939,5.357,12.622,5.173,12.622a1.769,1.769,0,0,0-1.7,1.921S5.11,33.446,5.806,41.27c.707,7.708,1.977,22.044,28.857,34.839a1.79,1.79,0,0,0,1.521,0C63.068,63.314,64.352,48.978,65.041,41.27c.707-7.824,2.335-26.728,2.335-26.728A1.769,1.769,0,0,0,66.937,13.23ZM61.518,40.973C60.9,47.9,59.75,60.736,35.424,72.561,11.1,60.736,9.956,47.9,9.329,40.973,8.764,34.606,7.561,20.952,7.151,16.05A57.3,57.3,0,0,0,35.424,6.039,57.3,57.3,0,0,0,63.7,16.05c-.424,4.9-1.613,18.567-2.179,24.924ZM32.905,42.547l9-10.75a1.77,1.77,0,0,1,2.717,2.271L34.207,46.5a1.769,1.769,0,0,1-1.358.637h-.032a1.769,1.769,0,0,1-1.365-.69l-5.267-6.827a1.769,1.769,0,1,1,2.8-2.161Z" transform="translate(-3.064 -1.522)"/>
</svg>
