<?xml version="1.0" encoding="UTF-8"?>
<svg id="Layer_2" data-name="Layer 2" xmlns="http://www.w3.org/2000/svg" viewBox="0 0 641.12 276.91">
  <defs>
    <style>
      .cls-1 {
        fill: #dc1f26;
        stroke-width: 0px;
      }
    </style>
  </defs>
  <g id="Layer_1-2" data-name="Layer 1">
    <g>
      <g>
        <path class="cls-1" d="M306.4,136.57c0-5.45.98-10.75,2.93-16.06,1.95-5.17,4.89-10.05,8.66-14.24,3.77-4.33,8.38-7.68,13.82-10.33,5.45-2.51,11.59-3.77,18.57-3.77,8.24,0,15.36,1.82,21.23,5.45,6,3.63,10.47,8.24,13.41,14.1l-13.27,9.22c-1.54-3.35-3.49-6-5.86-7.96-2.37-1.95-5.03-3.35-7.82-4.19s-5.45-1.26-8.1-1.26c-4.33,0-8.1.84-11.31,2.65-3.21,1.82-5.86,4.05-8.1,6.84-2.23,2.79-3.77,6-4.89,9.5-.98,3.49-1.54,6.98-1.54,10.61,0,3.91.56,7.68,1.82,11.31s3.07,6.84,5.31,9.64c2.23,2.79,5.03,5.03,8.24,6.7,3.21,1.68,6.7,2.51,10.61,2.51,2.79,0,5.59-.42,8.38-1.4s5.45-2.37,7.96-4.33c2.37-1.95,4.33-4.61,5.59-7.82l14.24,8.1c-1.82,4.47-4.61,8.24-8.66,11.31-3.91,3.07-8.38,5.45-13.41,6.98-4.89,1.54-9.77,2.37-14.66,2.37-6.42,0-12.15-1.26-17.46-3.91s-9.77-6.14-13.68-10.61c-3.77-4.33-6.84-9.36-8.94-14.8-1.95-5.45-3.07-11.03-3.07-16.62Z"/>
        <path class="cls-1" d="M424.81,183.07c-5.31,0-10.19-.84-14.38-2.65-4.33-1.82-7.96-4.19-10.89-7.4-2.93-3.21-5.31-6.7-6.84-10.75-1.54-4.05-2.37-8.38-2.37-12.85s.84-8.8,2.37-12.85c1.54-4.05,3.91-7.68,6.84-10.75,2.93-3.21,6.56-5.59,10.89-7.4,4.33-1.82,9.08-2.65,14.38-2.65s10.19.84,14.38,2.65,7.82,4.19,10.89,7.4c3.07,3.21,5.31,6.7,6.84,10.75,1.54,4.05,2.37,8.38,2.37,12.85s-.84,8.8-2.37,12.85c-1.54,4.05-3.77,7.68-6.84,10.75-2.93,3.21-6.56,5.59-10.89,7.4-4.19,1.82-9.08,2.65-14.38,2.65ZM407.64,149.42c0,3.77.7,7.12,2.23,10.05s3.49,5.17,6.14,6.84c2.65,1.68,5.59,2.51,8.8,2.51s6-.84,8.66-2.51c2.65-1.68,4.61-4.05,6.28-6.84,1.54-2.93,2.37-6.28,2.37-10.05s-.84-6.98-2.37-9.91-3.63-5.31-6.28-6.84c-2.65-1.68-5.45-2.51-8.66-2.51s-6.14.84-8.8,2.51c-2.65,1.68-4.61,4.05-6.14,6.84s-2.23,6.14-2.23,9.91Z"/>
        <path class="cls-1" d="M482.77,181.82l-24.3-65.21h17.46l16.62,49.99,16.76-49.99h15.92l-24.16,65.21h-18.29Z"/>
        <path class="cls-1" d="M559.15,183.07c-5.31,0-10.05-.84-14.24-2.65-4.33-1.82-7.96-4.19-10.89-7.26-3.07-3.07-5.31-6.7-6.98-10.61-1.68-4.05-2.51-8.24-2.51-12.71,0-6.14,1.4-11.87,4.19-17.04s6.84-9.22,12.01-12.29c5.17-3.07,11.45-4.61,18.57-4.61s13.41,1.54,18.43,4.61c5.17,3.07,9.08,7.26,11.73,12.29,2.65,5.17,4.05,10.61,4.05,16.48,0,.98,0,1.95-.14,3.07-.14.98-.14,1.95-.28,2.51h-50.83c.28,3.21,1.26,6.14,2.93,8.52,1.68,2.51,3.77,4.33,6.28,5.59s5.31,1.95,8.24,1.95c3.35,0,6.56-.84,9.5-2.51,2.93-1.68,5.03-3.77,6.14-6.42l14.38,4.05c-1.54,3.35-3.91,6.28-6.84,8.94s-6.42,4.61-10.47,6.14c-3.91,1.26-8.38,1.96-13.27,1.96ZM541.97,144.11h34.35c-.28-3.21-1.26-6.14-2.79-8.52s-3.63-4.33-6.14-5.59c-2.51-1.4-5.31-1.95-8.38-1.95s-5.73.7-8.24,1.95c-2.51,1.4-4.47,3.21-6,5.59-1.54,2.37-2.37,5.17-2.79,8.52Z"/>
        <path class="cls-1" d="M641.12,130.57c-5.17,0-9.64.98-13.68,2.93-4.05,1.95-6.84,4.75-8.66,8.52v39.8h-16.76v-65.21h15.36v13.41c2.37-4.47,5.31-8.1,8.94-10.61,3.63-2.65,7.4-4.05,11.45-4.33h2.09c.56,0,.98,0,1.26.14v15.36h0Z"/>
      </g>
      <path class="cls-1" d="M90.51,87.7v.28s.14,0,.14.14c-.14,0-.14.14-.14.28s.14.14.14.28h-.14v.14q-.14.14-.14.28c0,.14,0,.28-.14.42-.14.14-.28.28-.42.42q0,.14-.14.14h-.14v.28q0,.14-.14.14c-.14.14-.14.28-.14.28-.14,0-.28.28-.28.28q-.14.14-.28.28c-.14,0-.28,0-.28.14s.14.28,0,.42c0,0-.14,0-.14.14,0,0,0,.14-.14.14-.14.14-.28.42-.56.42q-.14,0-.28.14c-.14.14-.28.14-.14.28q-.14,0-.14.14c-.14.14-.42.14-.42.28,0,0-.42.28-.56.42-.14,0-.14.14-.14.28,0,0-.14.14-.28.14v.14c-.14,0-.14.14-.28.14s-.28,0-.42.14c0,0,0,.14-.14.14h-.14c-.14,0-.14.14-.28.14s-.14.14-.28.14h-.14l-.14.14q-.14,0-.28.14c-.14,0-.14.14-.14.28,0,.28-.7,0-.56.28-.14,0-.28.14-.42.14,0,.14-.28.14-.14.28h-.28v-.14c-.14,0-.28.14-.42.14,0,0,0,.14-.14.14h-.28c-.14,0-.28.14-.42.14s-.28-.14-.42-.14v-.14q-.14,0-.14.14h-.7c-.14,0-.28.14-.42.14l-.14-.14.14-.14c-.14-.14-.28-.14-.42-.14h-.28q-.14,0-.14-.14c-.14-.14-.28-.14-.28-.28-.14-.14-.14-.28-.14-.56l-.28-.14c-.14-.14,0-.28-.14-.28v.14h-.14v-.14c0-.14-.14-.42-.14-.56v-.42c0-.14-.14-.14-.14-.14q0-.14.14-.28v-.42s-.14,0-.14-.14-.14-.14,0-.28c0-.14.14-.28,0-.56v-.56l.14-.14s0-.14.14-.28c0-.14.14-.28.14-.42v-.42s.14,0,.14-.14v-.14c0-.14.14-.14.14-.28q.14-.14.14-.28c.14-.14.14-.28.14-.42v-.42s.28-.14.28-.28q.14-.14.28-.28c.14-.28.28-.7.56-.98.14-.14.28-.28.42-.42.14-.14.28-.28.42-.42.14-.28.28-.28.56-.42.14-.14.42-.28.56-.42.28-.28.7-.56.98-.84.14-.14.28-.14.42-.28s.28-.14.42-.28.42-.28.56-.28c.14-.14.28,0,.42-.14.14,0,.28-.14.42-.14.28-.14.42-.28.7-.28h.42v-.14h.28c.14,0,.28-.14.42-.14h.42c.28,0,.42-.14.7,0,0,0,0,.14.14.14s0-.14.14-.14.28,0,.28.14h.14l.14.14q.14.14.28.14v.14c.28-.14.28.14.28.28s.14.14.14.28v.28l.14.14v.28q0,.14.14.28c.14.14,0,.14,0,.28.28.14.28.28.28.42s.14.42.28.42v.28c0,.28.14.56,0,.84.98.42.98.56.98.56M47.64,202.06c.14-.14.14-.28.14-.42.14-.14,0-.28.14-.56l.14-.14v-.28c0-.14,0-.28.14-.56,0-.14.14-.14.14-.14v-.28c0-.14.14-.28.14-.42v-.56c0-.28.14-.56.14-.84q0-.14.14-.14c0-.14-.14,0-.14-.14v-.28c0-.14,0-.28.14-.42.14-.14.14-.28,0-.42v-.56c0-.14.14-.14.14-.14.14-.14,0-.14,0-.28v-.42c0-.14,0-.28.14-.42,0-.14.14-.28,0-.56v-.84c0-.14.14-.28.14-.56v-1.12c0-.14,0-.28.14-.42,0-.14,0-.42.14-.56v-.84c0-.14.14-.14.14-.14v-1.82s0-.14.14-.14v-.28q0-.14.14-.14s-.14,0-.14-.14v-.84q0-.14.14-.28v-.28c0-.14.14,0,.14-.14v-1.12c0-.14.14-.28,0-.42-.14-.14,0-.28.14-.42v-.14h0v-.56c0-.14,0-.28.14-.42v-.7c0-.14.14-.42,0-.56v-.14q0-.14.14-.14v-.84c-.14,0,0-.14,0-.28v-.56l.14-.14v-.14h0v-1.26q0-.14.14-.14c.14-.14,0-.28,0-.56v-.42c0-.14,0-.42.14-.42h0c.14-.14,0-.28,0-.42v-2.65s.14-.14,0-.14c0-.14,0-.28.14-.42.14-.14,0-.42,0-.56v-.98h.14c0-.14-.14-.14-.14-.14l.14-.14v-1.54c0-.14.14-.42.14-.56v-1.12l.14-.14v-.28c0-.14,0-.42.14-.56v-.7h.14c0-.14,0,0-.14-.14v.84c0-.14.14-.28.14-.42v-.56c0-.14.14-.28,0-.42v-1.12s-.14-.14,0-.14h.14c-.14-.14,0-.28,0-.42v-1.12c0-.14.14-.28.14-.42v-.98c0-.14.14-.14.14-.14v-.28s.14,0,.14-.14v-.42h.14v-.42s.14,0,.14-.14v-.98s-.14,0,0-.14h.14v-.28c-.14,0,.14-.28.14-.14,0,0-.14,0,0,.14h.42s.14,0,.14-.14v-.28c0-.14.28-.14.28-.28,0,0,0-.14-.14-.14,0-.14,0,0-.14-.14v-.14s-.14,0-.14-.14,0-.14-.14-.14-.14,0-.28-.14-.14-.14-.14-.42v-.28q0-.14.14-.14v-.14s-.14-.14,0-.14c0-.14.14-.14.14-.28v-.14c0-.14.14-.28.14-.42s.14-.28.14-.42v-.98c0-.14.14-.28.14-.42v-.84q0-.14.14-.14v-.28c0-.14-.14-.28-.14-.42v-.14h0v-.14l.14-.14v-.28c0-.14.28-.14.28-.42h0v-.14s.14,0,.14-.14,0-.28.14-.28h.14v-.14l.14-.14c.14,0,.28,0,.28-.14s0-.28.14-.42c0-.14.14-.14.14-.28s-.14-.28,0-.42v-.42h.14v-.14h.14s.14,0,.14-.14c.14-.14,0-.28,0-.42v-.42c0-.14,0-.28.14-.28l.14-.14v-.42l-.14-.14c0-.14.14-.14.14-.28v-.56h0v-.28c-.14-.14-.14,0-.28.14-.14,0-.28-.14-.28-.14-.14-.14-.14-.28,0-.42v-.42h.14c0-.14.14-.28,0-.42v-.98l.14-.14v-.84c.14,0,.14-.14.14-.14v-.7q0-.14.14-.14c.14-.14,0-.28,0-.42v-.42h.14s0-.14.14-.14v-1.82q0-.14.14-.14h.14c.14-.14-.28-.14-.28-.28v-.14h0v-.14s.14-.14,0-.14q0-.14-.14-.14l-.14-.14v-.56c0-.14.14-.28.28-.28,0,0,0-.14.14-.14h.14v-.14c.14-.14.14-.56.14-.84v-.42s-.14,0-.14-.14,0-.28.14-.28v-.42s.14-.14.14-.28-.14-.14-.14-.28,0-.28.14-.42c.14-.14,0-.14-.14-.42,0-.28.14-.56.28-.7.14-.14.14-.28.14-.42v-.14h.14v-.84q0-.14.14-.28v-.42l.14-.14v-.42h0v-.42q0-.14.14-.14v-.28h0v-.14h0c0-.14.14,0,.14,0h.14v-.14c0-.14.14,0,.14-.14,0,0,0-.14.14-.14h.14c.14-.14.14-.28.14-.42v-.14s0-.14.14-.14v-.56c0-.14.14-.28.14-.56v-.84s0-.14-.14-.14v-.14c0-.14-.14-.14-.14-.14v-.28c0-.7.28-1.26.42-1.82v-.42s0-.14.14-.14h.28c.28,0,.28-.14.28-.28.14-.14.14-.28.14-.42s.14-.28,0-.42c0,0-.14,0-.14-.14h-.14v-.14c0-.14.14-.14.28-.28.14,0,.14-.28.14-.42s-.14-.14-.14-.14c0,0,0-.14-.14-.14,0-.14,0-.28.14-.42q.14-.14.14-.28v-.28c0-.14-.14-.14-.14-.28s0-.28.14-.42c0-.14,0-.28.14-.42.14-.14,0-.28.14-.42,0-.14.14-.42.14-.56s.14-.14.14-.28v-.14c0-.14.14-.14.14-.28v-1.12q0-.14.14-.14v-.28c0-.14,0-.28.14-.42,0-.14.14-.28.14-.42v-1.26c0-.14.14-.28.14-.28,0-.14.14-.28.14-.42v-.56s.14,0,.14-.14v-.56c0-.14.14-.28.14-.42.14-.28.14-.56.28-.84,0-.14.14-.28.14-.42s0-.42.14-.28c0-.14-.14-.14-.14-.14,0-.14.14-.14.14-.14,0,0-.14,0-.14-.14,0,0,0-.14.14-.14v-.7c0-.14.14-.14,0-.14v-.28c0-.14.14-.14.14-.14v-.28c0-.14,0-.28.14-.42,0-.14.14-.14.14-.14v-.56h.14v-.84q.14,0,.14-.14v-.7c0-.14.14-.14.14-.14v-.14l.14-.14c-.14,0,0-.14,0-.14v-.14c0-.14.14-.28.14-.42s0-.28.14-.42c0-.14,0-.28.14-.42,0,0,.14,0,.14-.14v-.28q0-.14.14-.28v-.14q0-.14.14-.14v-.28q0-.14.14-.28s.14,0,.14-.14v-.14c0-.14,0-.28.14-.28q0-.14.14-.14s0-.14.14-.14h.14v-.42c0-.14.14-.28.28-.28,0-.14,0-.28.14-.28v-.28c.14-.28,0-.56.14-.7,0-.14.14-.14.28-.28,0-.14.14-.28.14-.42s0-.28.14-.42c.14-.14.42-.28.56-.42v-.14s0-.14.14-.14v-.7c0-.14.14-.28.28-.42v-.42h0c.14-.14.14-.28.14-.42s0-.28.14-.42c0-.14,0-.28.14-.42,0-.14.14-.28.28-.42.14-.14.14-.28.28-.28h.28l.14-.14c.14,0,.14-.14.28-.28,0,0,0-.14.14-.14v-.28c0-.14.14-.14.14-.14q0-.14.14-.14c0-.14.14-.14.14-.28s.14-.14.14-.28v-.14c0-.14.14-.14.14-.42,0-.14-.14-.28,0-.42,0-.14.14-.28.14-.42s0-.14-.14-.14c0,0-.14-.14-.14-.28s0-.28.14-.42v-.98c0-.14.14-.28.14-.42v-.7q0-.14.14-.14v-.28c0-.14-.14-.14,0-.14l.14-.14s0-.14.14-.28c0-.14.14-.28,0-.42v-.42c0-.14.14-.14.28-.28.14-.14,0-.14-.14-.28v-.42c0-.42.28-.56.42-.98.14-.28.28-.56.42-.98.14-.42.42-.56.42-.98v-.42c0-.28.14-.42.28-.56.14-.28.14-.56.28-.84,0-.14,0-.28.14-.42v-.56c0-.14.14-.28.14-.42v-.28c0-.14.14-.14.28-.14q.14-.14.28-.42c0-.28.14-.56.28-.84.14-.14.14,0,.28-.14q.14-.14.14-.28t.14-.28c-.14-.14-.28-.28-.42-.42,0-.14-.14-.42,0-.56q0-.14.14-.14s0-.14.14-.28.14-.28.28-.42c.14-.14,0-.42.14-.56v-.28l.14-.14c0-.14.14-.14.28-.28.14-.14.14-.28.14-.28v-.28c0-.14-.14-.14-.14-.14,0-.14,0-.42.14-.42.14-.14.28-.28.28-.42s.28-.42,0-.42c0-.14,0-.28.14-.42,0-.14.14-.14.14-.28s0,0,.14-.14,0-.14,0-.14c-.14,0-.14-.14-.14-.14,0-.14,0-.42.14-.56,0-.28.14-.42.28-.56v-.56c0-.14,0-.28.14-.56,0-.14.14-.28.14-.42.14-.14.14-.28.28-.42.14-.14.28-.28.14-.42v-.28l.14-.14v-.28q0-.14.14-.28c0-.14.14-.14.14-.14v-.28c0-.14-.14-.14-.14-.14,0-.14.14-.14.14-.28,0,0,0-.14.14-.28,0,0,.14,0,.14-.14v-.28q0-.14.14-.14l.14-.14v-1.12c0-.14.14-.14.14-.28v-.28c0-.14.14-.14.14-.14v-.42c0-.14.14-.14.14-.28,0,0,0-.14.14-.14,0-.14.14-.28.14-.42,0,0,0-.14.14-.14h.14v-.14h0v-.42h0v-.56h0q.14,0,.14-.14v-.84l.14-.14q.14-.14.14-.42v-.28c0-.14.14-.28.14-.42v-.84c0-.14.14-.28.14-.28l.14-.14.14-.28v-.28c0-.14.14-.28.14-.42s.28-.28.14-.42c.14-.42.56-.56.56-.98,0-.14.14-.42.28-.56,0,0,.14-.14.14-.28s-.14-.14-.14-.28c.14,0,.28-.42.42-.42.14-.14.14-.42.14-.56s.14-.14.14-.28l.14-.14s.14,0,.14-.14v-.14s.14,0,.14-.14v-.42c0-.14.14-.28.14-.28,0-.14-.14-.14-.14-.28v-.42c0-.14.28-.14,0-.28,0-.14.14-.42.28-.56s.14-.42.28-.56c.14-.28.14-.42.28-.7,0-.14.14-.14.14-.28s0-.28.14-.42c.14-.28.28-.42.28-.7v-.14s.14,0,.14-.14c.14-.14,0-.28,0-.42.28,0,.14-.28.28-.28v-.14c0-.14.14,0,.14-.14.14-.28.14-.42.28-.56,0-.14.14,0,.14-.14v-.14c0-.14.14,0,.14-.14v-.14c0-.14,0-.42.14-.42v-.14c.14,0,.42-.84.42-.98.28-.56.56-1.26.84-1.82.14-.42.28-.7.56-.98h-.14c0-.14.14-.28.14-.28q.14-.14.14-.28c0-.14.14-.42.28-.56,0,0,0-.14.14-.14l.14-.14c0-.14,0-.28.14-.28.14-.28.14-.42.28-.56.14-.28.28-.56.42-.7,0,0,0-.14.14-.14v-.14c0-.14.14-.28.14-.42v-.14s.14,0,.14-.14c.14-.14.14-.28.14-.28,0-.14,0-.28.14-.42s.14-.28.28-.56q0-.14.14-.28c0-.14.14-.28.28-.56.14-.14.14-.42.28-.56s.14-.14.28-.14q.14-.14.28-.14c0-.14,0-.98.28-.7,0-.14,0-.28.14-.42,0-.14.14-.14.28-.14-.28-.14,0-.42.28-.56h0s.14,0,.14-.14v-.28c0-.14.28-.28.28-.42.14-.14.14-.42.28-.42q.14-.14.14-.28c0-.28.14-.42.28-.56.28-.42.56-.7.84-.98l.14-.14h.14l.14-.28c0-.14.14-.28.14-.28l.28-.28c0-.14.14-.14.28-.28s.14-.28.28-.42l.28-.28.28-.14q0-.14.14-.14v-.14l.14-.14.14-.14q0-.14.14-.14s.14,0,.14-.14v-.14s.14,0,.28-.14c0,0,0-.14.14-.14,0,0,.14,0,.14-.14v-.14h0c.14-.14.28-.28.28-.42h.42c.14,0,0-.28.14-.28,0,0,.14,0,.14-.14l.14-.14v-.14c0-.14-.14,0,0-.14l.14-.14c.14,0,.14.14.14.14q0,.14-.14.14v.14s0,.14.14.14c0,.14.28,0,.28-.14,0,0,0-.14.14-.14l.14-.14c.14-.14,0-.28,0-.28v-.28c0-.14.14,0,.28-.14v-.28q.14,0,.14.14s-.14.14,0,.14h.42v-.28h.14c.14,0,0-.14,0-.14,0-.14.14,0,.14,0h.42v.14h.14v-.14h.14c.14,0,0,0,.14-.14l.14-.14v-.28s0-.14.14-.14.14.14.14,0,0-.28.14-.14v-.56c0-.14-.14-.28,0-.42,0-.14.14-.28.28-.28h.28c0-.14-.14-.28-.14-.28,0,0,0-.14.14-.14l.14-.14v-.42h.14s0-.14.14-.14l.14-.14v-.28l.14-.14.28-.28c0-.14.14-.28.14-.42v-.14c.14,0,.14-.14.14-.28h.14v-.14c0-.14.14-.28.14-.42s0-.28.14-.42q0-.14.14-.14s0-.14.14-.14v-.42c0-.14.14-.28.14-.42v-.7h-.14q-.14,0-.14-.14l.14-.14v-1.68c0-.14-.14-.14-.14-.28v-.98c0-.14-.14-.28-.14-.42v-.14c0-.14-.14-.14-.14-.28v-.28c0-.14-.14-.28-.14-.42s0-.14-.14-.14v-.28c0-.14-.14-.14-.14-.42v-.28s-.14,0-.14-.14v-.14c-.14-.14-.14-.42-.28-.56,0,0,0-.14-.14-.14l-.14-.14c-.14-.28-.42-.42-.56-.7-.14-.14-.28-.14-.28-.28,0,0,0-.14-.14-.14h-.14c-.14,0,0-.14-.14-.14h-.14l-.14-.14-.14-.14v-.14q-.14,0-.14-.14v-.14h-.28c-.14,0-.14-.14-.14-.14l-.28-.28s-.14,0-.28-.14c0,0,0-.14-.14-.14-.14-.14-.28-.14-.42-.14-.14-.14-.28-.14-.56-.28-.14,0-.28-.14-.42-.14s-.28,0-.42-.14h-.42s-.14,0-.14-.14c-.14-.14-.28-.14-.42-.28h-.56c-.14,0-.42-.14-.56-.14h-1.4s-.14-.14-.28-.14-.14.14-.28.14-.14-.14-.14-.14c-.14,0-.42.14-.7.14s-.42,0-.7.14c-.28,0-.28.14-.56.28-.14.14-.42,0-.56.14-.14,0-.42.14-.56.28-.84.42-1.68,1.12-2.37,1.68-.28.14-.42.42-.56.56,0,0,0,.14-.14.14h-.28c-.14.14-.14.28-.14.42-.14,0-.28.14-.42.42h-.14c0,.14-.14.14-.28.14-.14.14-.14.28-.14.42-.14.28-.28.42-.56.56-.14.28-.42.42-.56.56-.28.42-.56.7-.7,1.12-.14.28-.28.42-.28.7-.42.14-.56.84-.7,1.12-.28.42-.42.84-.56,1.26-.42.7-.7,1.54-.98,2.37-.14.42-.28.84-.56,1.4-.28.42-.42.84-.56,1.26-.14.56-.28,1.12-.56,1.54-.14.42-.42.98-.56,1.4-.42.84-.84,1.68-1.12,2.65-.14.42-.28.98-.56,1.4-.14.42-.28.98-.56,1.4-.42.84-.56,1.82-.98,2.65-.14.28-.42.56-.42.84-.14.42-.14.7-.28,1.12-.28.7-.56,1.4-.84,2.09-.28.7-.56,1.54-.84,2.37-.28.98-.7,1.95-1.12,2.93-.14.42-.42.84-.56,1.26-.14.42-.28.98-.42,1.4-.28.42-.42,1.12-.56,1.54-.28.7-.42,1.26-.7,1.95s-.56,1.4-.84,2.09c-.28.98-.56,1.82-.98,2.65-.84,2.23-1.54,4.47-2.37,6.7,0,.28-.14.42-.28.56q-.14.28-.14.56c-.14.14-.28.42-.42.56-.14.28-.28.42-.28.7-.14.56-.28.98-.28,1.54,0,.7-.42,1.26-.56,1.82-.14.28-.14.7-.28.98-.28.56-.7,1.26-.84,1.95-.14.42-.42.84-.42,1.26-.14.42-.14.84-.28,1.4-.14.28-.42.84-.28,1.12-.28.28-.28.98-.42,1.26-.14.42-.14.98-.28,1.4-.14.42-.56.84-.56,1.4s-.14.98,0,1.4c0,.42-.28.42-.42.7s-.28.7-.28.84c0,.42,0,.56-.14.84s-.28.56-.28.98c-.42,1.26-.7,2.37-1.12,3.63-.14.56-.28,1.26-.42,1.82s-.42,1.12-.7,1.82c-.42,1.26-.56,2.51-.84,3.77-.14.42-.28.84-.28,1.26,0,.14.14.42,0,.56,0,.28-.28.42-.42.7,0,.28,0,.7-.14.98-.28.56-.42,1.12-.56,1.68-.28,1.26-.7,2.51-.98,3.77-.28.98-.56,1.95-.84,2.93,0,.42,0,.84-.14,1.26-.14.56-.28.98-.42,1.54-.14.42-.14.7-.28.98v.56c0,.14-.14.28-.28.42-.14.28,0,.56-.14.84s-.14.56-.14.84c-.14.56-.28,1.26-.42,1.82-.28.98-.42,1.82-.7,2.79-.14.42-.14.98-.28,1.54-.28.84-.42,1.82-.56,2.79-.14.56-.28.98-.42,1.4-.14.42-.28.98-.28,1.4,0,.28-.42.98-.14,1.4-.28.28-.28.84-.28,1.26s0,.84-.14,1.26c-.14.7-.42,1.4-.56,2.09-.14.56-.14,1.12-.42,1.68-.14.42-.14.84-.28,1.26-.14.7-.28,1.4-.28,2.09-.14,1.4-.56,2.79-.7,4.19-.14.56-.28,1.26-.28,1.82,0,.98-.42,1.82-.56,2.79,0,.28-.14.7-.28.98-.14.7-.14,1.4-.28,2.09-.28,1.26-.42,2.79-.7,3.91-.14.42-.14.98-.28,1.4-.14,1.82-.56,3.49-.7,5.31-.14.84-.28,1.68-.28,2.51,0,.42,0,.84-.14,1.26v.84c0,.14-.14.14-.14.28v.42c0,.56-.14,1.12-.28,1.68h-.14v.56c-.14.14-.14.42-.28.42-.28.14-.28-.28-.14-.42-.28-.28-.14-.28-.56-.14,0-.14-.14-.28-.14-.42-.14-.28,0-.14,0-.42.14-.28.14-.7,0-1.12,0-.28-.14-.14-.14-.42,0-.14.14-.28.14-.42,0-.56-.42-.42-.7-.56,0-.14.14-.14.14-.28s-.14-.28-.14-.56v-.98c0-.28.14-.7,0-.84-.14-.28-.28-.56-.28-.84s-.28-.56-.28-.84c0-.14.14-.28.14-.42s-.14-.42,0-.56c.14-.42.28-.42.14-.84-.28-.84,0-.7,0-.98,0-.14-.14-.7-.28-.84l-.28-.28c-.28-.14-.14-.14-.14-.42,0-.14-.14-.14,0-.28.14,0,.28,0,.28-.14h-.14c-.14,0,0,0,0,.14-.14.28-.28-.14-.28-.28s.14-.14.14-.28-.14-.14,0-.28c0-.14.42-.28.42-.28h-.28c-.14,0-.28.14-.28.14,0,.28-.28.14-.28,0v-1.4c0-.14.14-.14.14-.28s0-.28-.14-.28q-.14-.14,0-.28c.14-.14.14-.28.14-.28,0-.14.14-.14.14-.28s0-.28.14-.42c0-.14.14,0,.14-.14v-.14c0-.14.14-.14.14-.28v-.56c-.14-.14-.14-.28-.28-.42-.14-.14,0-.42-.14-.56,0-.14-.14-.14-.28-.28v-.42s-.28-.14-.14-.28c0-.14-.14-.14-.14-.28s0-.28-.14-.42c0-.14-.14-.14-.14-.28v-.42c0-.28-.14-.56-.14-.84v-1.54q0-.14-.14-.28c-.14-.14,0-.14,0-.28s-.14-.14-.14-.28-.14-.28-.14-.42c0-.28,0-.56-.14-.7q.14-.14,0-.28c0-.14,0-.28-.14-.42v-.42c0-.14-.14-.14,0-.28.14,0,.28,0,.42-.14.14,0,.14-.28.14-.28,0-.14-.28-.42-.42-.56-.14-.14-.28-.42-.28-.7v-.56c0-.14,0-.42-.14-.56v-.56c0-.14-.14-.28-.14-.42-.14-.14,0-.28-.14-.42,0-.14-.14-.14-.28-.28-.14-.28-.28-.56-.28-.84v-.28c-.14-.14-.28,0-.28-.14,0-.28.14-.14,0-.28q-.14,0-.14-.14v-.7c.14-.14.28-.14.14-.42,0-.14-.14-.14-.28-.14q-.28,0-.28-.28v-.84c0-.14-.14-.28-.14-.42,0-.28,0-.42.14-.56v-.28c-.14-.14-.14,0-.28-.14,0-.56-.14-1.12-.28-1.68q0-.14.14-.28c0-.14,0-.28-.14-.28-.14-.28-.14-.56-.14-.84,0-.14,0-.42-.14-.56,0-.14-.14-.42-.14-.56s0-.14.14-.14c0,0,.28-.14.14-.14,0,0-.14,0-.28-.14-.14,0-.14-.14-.14-.14q0-.14.14-.28,0-.14-.14-.14c-.14-.14-.14-.42,0-.56,0-.14.14-.14,0-.28v-.14s-.14,0-.14-.14v-.84s.14-.28,0-.14c-.14-.14,0-.14.14-.14q0-.14-.14-.14s0-.14-.14-.28q0-.28.28-.42.14,0,.14-.14c0-.14-.14-.14-.14-.14v-.84c0-.14-.28-.14-.14-.28,0-.14.14,0,.28-.14,0-.14-.14-.14-.14-.14l.14-.14c0-.14-.14-.14-.14-.14-.14,0-.28,0-.42-.14-.14-.14-.14-.42,0-.56s.14-.14.14-.42q0-.14-.14-.14c-.14,0-.14-.14-.14-.14,0-.14-.14-.42,0-.56,0,0,.14,0,.28-.14,0-.14-.14-.14-.28-.14s-.28.14-.28.14l-.14-.14c0-.14.14-.14.14-.14,0,0,.14-.14.14-.28s-.14,0-.14-.14l-.14-.42c.14,0,.14.14.14,0v-.14s0-.14-.14-.14c-.14-.14-.14,0-.14-.14s-.14-.42-.14-.56v-.28s.14-.14.14-.28-.14-.42-.28-.56-.14-.28-.14-.56v-.84c0-.14-.14-.14,0-.28,0-.14.14-.14,0-.14-.14-.28-.14-.56-.14-.84,0-.14,0-.28-.14-.56,0-.14-.14-.42-.14-.56s-.14-.42-.14-.56v-1.54c0-.14-.14-.14-.14-.28v-.7s-.14,0-.14-.14.14-.14,0-.14c0-.14-.14-.42-.14-.56,0-.28-.14-.42-.14-.56v-1.12l-.14-.14v-.7c0-.14-.14-.28-.14-.56v-1.12c0-.14-.14-.42-.14-.56v-.42c0-.14,0-.28-.14-.28,0-.14,0-.42-.14-.56v-.28q0-.14-.14-.28c-.14-.42-.14-.84-.28-1.26v-.56c0-.14-.14-.28-.14-.56-.14-.42-.14-.7-.42-1.12,0-.14-.14-.14-.28-.28v-.28c0-.14-.14-.14-.14-.14q0-.14-.14-.28c0-.14-.14-.28-.28-.42q0-.14-.14-.14l-.14-.14-.28-.28-.28-.28c-.14-.14-.28-.14-.42-.28l-.28-.28-.28-.28c-.14-.14-.42-.28-.7-.42q-.14,0-.28-.14c-.14-.14-.42-.14-.56-.14s-.14,0-.28-.14c-.28,0-.42-.14-.7-.14h-.56c-.14,0-.14-.14-.14,0h-1.4c-.14,0-.42.14-.56.14s-.14,0-.28.14c-.14,0-.14.14-.14.14h-.28c-.14,0-.42.14-.56.28s-.28.14-.42.28c-.28.14-.56.28-.84.56-.14.28-.42.42-.7.56-.28.28-.42.7-.7.98-.28.42-.56.84-.7,1.26-.14.56-.42.98-.56,1.54,0,.14,0,.28-.14.42,0,.14-.14.28-.14.42-.14.28-.14.56-.14.84,0,.14-.14.14-.14.28s0,.14-.14.28-.14.28-.14.56c0,.14-.14.14-.14.28s.14.14,0,.28h-.14v.14c-.14.56-.42,1.12-.56,1.82,0,.14-.14.28-.14.42s0,.28-.14.42c-.14.28-.14.56-.28.7-.14.28-.14.42-.28.7-.28.84-.42,1.82-.84,2.65-.14.28-.28.56-.42.84q-.28.42-.28.84c0,.42-.14.7-.14.98s-.14.56-.42.84c-.28.42-.28.7-.42,1.12-.14.28-.28.56-.42.98-.14.28,0,.42,0,.84,0,.28-.28.7-.28.98-.14.56-.42,1.26-.56,1.82s-.42,1.12-.56,1.54q-.14.42-.28.84c-.14.28-.28.56-.28.84.14.14-.14.56-.28.84-.14.42,0,.7-.14.98-.28.7-.42,1.12-.56,1.82-.14.56-.56.98-.84,1.4-.14.28-.28.7-.28.98,0,.42,0,.56-.14.98-.14.42-.28.98-.56,1.26-.14.14-.84.42-.42.7-.14.28-.56.42-.14.84-.14-.14-.28.56-.28.56,0,.28,0,.56-.14.84-.28.7-.56,1.4-.84,2.23s-.84,1.68-1.12,2.51h.14c0,.28-.14.56-.14.7-.14.28-.28.56-.28.7v.42c0,.14-.14.28-.28.42-.14.28-.14.56-.28.7,0,.14-.14.42-.14.7-.14.28-.14.56-.14.84-.14.42-.42.98-.56,1.4-.14.56-.42.98-.56,1.4-.28.98-.7,2.09-.56,3.07.14.56.14,1.12.56,1.54.56.7,1.12,1.54,1.95,1.95.28.14.84.42,1.12.42s.42.14.56.14h1.26c.14,0,.28-.14.42-.14h.84c.14,0,.14-.14.28-.14h.28c.14,0,.14-.14.14-.14.14-.14.28-.14.56-.14.42-.14.7-.42.98-.7.14-.14.28-.28.42-.42,0,0,.14-.14.28-.14,0-.14,0-.28.14-.28.14-.14.42.14.56,0s0-.14-.14-.28c-.14-.28,0-.42.14-.7s.14-.28.28-.42c.14-.14.14-.28.14-.42s-.14-.14,0-.28c0-.14.14,0,.14-.28.14-.14.14,0,.14-.28v-.42c0-.14.14-.14.28-.28v-.42c0-.28.14-.42.42-.56q.14-.14.14-.28c0-.14-.14-.14-.14-.28.14-.14.42-.28.56-.42,0-.14,0-.28.14-.42l.28-.28c0-.14-.14-.28,0-.42,0-.14.14-.28.14-.42,0-.28.14-.42.28-.7,0-.14.14-.28.28-.42.14,0,.42,0,.42-.14s-.28,0-.42-.14c-.14-.14,0-.28,0-.42s.14-.14.14-.14c0,0,.14-.14.14-.28v-.14c0-.14.14,0,.14,0,.14,0,0-.14,0-.14v-.14h.14v-.42l.14-.14v-.14h0s.14,0,.14-.14c-.14,0,0-.14,0-.28s.14-.14.28-.28v-.14s-.14,0-.14-.14v-.42c0-.14.14,0,.14-.14v-.14s.14,0,.14-.14c0,0,.14-.14,0-.14h-.28v-.28q0-.14.14-.14v.14h.14s.14.14.14,0c0,0,.14-.14,0-.14,0,0-.14,0-.14-.14,0,0,.14,0,.14-.14v-.56l.14-.14s.14,0,.14-.14,0-.14-.14-.14c-.28,0,0-.14,0-.28s0-.28.14-.42c.14-.14.14,0,.14,0v-.14c0-.14.14-.28.14-.42v-.14h.28c.14,0,.14-.14.14-.28,0,0-.14,0-.14-.14v-.14c0-.14,0-.28.14-.42h.14v-.42c.14,0,0-.14.14-.14h.14l.14-.14h.28v-.14h-.14q-.14,0,0-.14v-.14q0-.14.14-.14s.14,0,.14-.14l-.14-.14c0-.14.28-.14.42-.14s.14-.28.14-.42-.14,0-.14-.14v-.28c0-.28.14,0,.14,0,.14,0,0-.28,0-.28,0-.14.14,0,.14-.14v-.14c0-.14.14-.28.14-.42,0,0,0,.14-.14.14v-.14c0-.14-.14-.14-.14-.28v-.28c.14-.14.28.14.28.14q.14,0,.14-.14,0-.14.14-.14h.28s0,.14.14.14.14,0,.14-.14-.28,0-.28-.14.14,0,0-.14h-.14v.14c-.14-.14,0-.14,0-.28v-.14s.14,0,.14-.14c-.14,0,0-.14,0-.28.14,0,.42.28.56.14v-.14s.14,0,.14-.14c.14-.14,0-.14,0-.28h.14l.14-.14c0-.14.14-.14,0-.28,0,0,.14-.14,0-.14h.14v-.14l.14-.14q0-.14.14-.14v-.14h0v-.42q.14-.14.14-.28v-.42c.14,0,.14-.14.28-.14h.42s0,.14.14.14h.42s.14,0,.14.14l.14.14c0,.14.14.28.14.28h.14s.14-.14.14,0-.14,0-.14.14v.42h0v.14c0,.14-.14.14-.14.28l.14.14s0,.14.14.14c.14.14.14-.14.28-.28,0-.14.14-.14.28-.14s.28.14.28.28,0,.28-.14.28c0,0-.14,0-.14.14v.7c0,.14-.28.14-.14.14s.28.14.42.28c0,.14,0,0-.14.14v.14h-.14s-.14,0-.14.14v.14c0-.14.14.14.14.14v.28c0,.14-.14.28-.14.42s.28.14.28.28c.14.14,0,.14,0,.28-.14.28-.14.56,0,.84,0,.14.14.28.28.28h.14v.28l.14.14s-.14.14,0,.14h.14c.14,0,0,0,.14.14,0,.28.14.42.14.7s-.14.42-.28.56c.14.14.28-.14.28-.28v.84c0,.14.14.14.14.28v.42c0,.28,0,.56.14.84s.14.42.14.7v.56c0,.14.14.28.14.42.14.28.14.56.14.84.14.28.14.56.14.84v.42c0,.14.14.14.14.28,0,0-.14,0-.14.14v.42c0,.28,0,.42.14.7,0,.28.14.42.14.7,0,.14,0,.42.14.56,0,.14.14.28.14.56,0,.14,0,.28.14.42v.98c0,.14-.14.14-.14.14v1.26c0,.14-.14.28,0,.28,0,.14-.14.14-.14.28.14,0,0,.7.28.56v.28c0,.14.14.14.14.28v.42c0,.28.14.7.14.98s0,.42.14.7c0,.14.14.28.14.42s-.14.28-.14.28c.14.14.14.28.14.42s.14.28.14.42c0,.28.14.56.14.84.14.56.28,1.12.28,1.68v.42c0,.14.14.14.14.28v.42c0,.14.14.28.14.42,0,.28,0,.42.14.7q0,.14.14.28c.14.28.14.56.14.84,0,.14,0,.28.14.42v.14s0,.14.14.14v.42c0,.28,0,.56.14.84,0,.14,0,.28.14.42q.14.14.14.42v.84c0,.14.14.14.14.28s-.14.14,0,.28v.56c.14.28.14.56.14.84s0,.56.14.84v.98c0,.14,0,.28.14.42,0,.14,0,.28.14.42v.56c0,.28.14.42.14.7v.56c0,.14.14.28.14.42v.28c0,.14.14.28.14.42v.42q0,.14.14.28c0,.14-.14.14-.14.28s0,.14.14.14c.14.14.14.42.14.56v.28q0,.14.14.14c.14.14,0,.42,0,.56s.14.28.14.56v.42h.14v.28q0,.14.14.28v.56h.14v.14c-.14,0,0,.14,0,.14v1.26l.14.14v1.26c0,.14.14.14.14.14v1.54h0l.14.14v.84q0,.14.14.14v.28c0,.14,0,.28.14.28v1.12c0,.14,0,.7.14.7v.42h0v.56c.14.14.14.28.14.42v.28l.14.14v.42c.14,0,.14.28.14.42s0,.28-.14.42q-.14.14-.14.28v.28c0,.14-.14.14-.14.28v.28c0,.14-.14.28,0,.42.14,0,.14.14.28.14,0,0,.14,0,.14.14.14.14.28.28.28.42v.7s0,.14-.14.14c-.14.14-.14.28-.28.42l-.14.14s-.14,0-.14.14.14,0,0,.14c0,0-.14,0-.14.14q.14,0,.14-.14h.56s.14,0,.14.14c0,0,0,.14.14.14,0,.14.14.28.14.42v.42c0,.14.14.28.14.42s0,.28.14.42c0,0,0,.14.14.28v1.12s-.14,0-.14.14c0,0,.14.14.14.28,0,0,0,.14.14.14,0,.14.14.14.14.28v.28c0,.14.14.14.14.28v.14c0,.14.14.14.14.14v1.12c0,.14-.14.14-.14.14-.14.14-.14.42,0,.42,0,0,.14,0,.14.14s0,.14.14.28.14.28.14.42v.84l.14.14c0,.28,0,.42.14.56,0,.14.14.42.14.56v1.12h.14v.7q-.14,0,0,.14l.14.14v.28q0,.14.14.14c.14.28.14.56.14.7,0,.28.14.56.14.7v.84c.14.14,0,.28,0,.42v.84q0,.14.14.14c0,.14.14.28.14.56,0,.14,0,.42.14.56-.14.14,0,.14,0,.14.14.14,0,.28,0,.42s.14.28.14.28v.28c0,.14,0,0,.14.14,0,0-.14,0-.14.14v.7c-.14.14.14.14.14.28v.14h.14v.28c0,.14,0,.28.14.42,0,.14.14.14,0,.14,0,.14-.14.14,0,.14s.14.28.14.28c0,.14.14.14.14.28v.14s-.14,0-.14.14.14.14.14.14v.7c0,.14.14.14.14.28v.84q0,.14.14.14c.14.14.14.28.14.42v.28s.14.14.14.28v.28c0,.14.14.28.14.42v.28c.14.14,0,0,0,.14s.14.28.14.42v.28c0,.14,0,.28.14.28q0,.14.14.14c.14,0,0,.14.14.28s.14.28.14.42l.14.14c.14.14.14.28.28.42l.14.14v.14h.14s0,.14.14.14l.14.14c0,.14.14.14.28.14,0,0,.14,0,.28.14v.14s.14,0,.14.14c.14,0,.28,0,.42.14.14.14.28.14.56.28h.28c.14.14.28,0,.42.14.14,0,.28.14.56.14q.14,0,.28-.14h.84q.14,0,.28-.14h.28c.14,0,.42,0,.56-.14l.84-.28h0c-.14,0-.14-.14,0-.14h.28s0-.14.14-.14.14,0,.28-.14c0,0,.14,0,.28-.14l.14-.14c.14-.14.28-.14.42-.28.14,0,.28-.14.28-.28s.14-.14.14-.14l.14-.14c.14,0,.14-.14.14-.28,0,0,.14,0,.14-.14,0,0,0-.14.14-.14,0-.14.14-.14.14-.28,0,0,0-.14.14-.14v-.14l.14-.14c1.53-1.25,1.53-1.39,1.53-1.53M25.86,267l-6.56-12.71h-4.61v22.34h4.33v-14.8l5.73,11.03h2.37l5.73-11.03v14.8h4.33v-22.34h-4.61l-6.7,12.71ZM85.49,116.32c-.42,0-.42-.42-.7-.7-.14-.14-.14-.84.14-.84v-.14q-.14-.14-.14-.28c0-.14-.14-.42-.14-.56-.14-.42-.14-.7-.28-1.12-.14-.28-.28-.42-.42-.56-.42-.28-.42-.56-.56-.56-.28,0-.42-.14-.56-.14-.28,0-.56-.14-.84-.14-.56,0-.98.14-1.54.28-.84.28-1.82.7-2.51,1.26-.28.14-.42.42-.7.56s-.56.14-.7.42c0,0,0,.14.14.14-.14,0-.28,0-.42.14-.14,0-.14.14-.28.28-.14.14-.42.42-.56.56-.42.14-.7.7-.84.98-.28.42-.56.84-.84,1.26-.42.84-.7,1.68-1.12,2.65-.14.28-.28.7-.42.98s0,1.12-.28,1.12v.14c.28.56,0,.98-.14,1.4-.14.56-.14,1.12-.14,1.68,0,.7-.14,1.26-.14,1.82s-.14.98-.28,1.54c0,.28-.28,1.68,0,1.82,0,.28-.14.28-.14.56,0,.14.14.56.14.7,0,.42,0,.98-.14,1.4,0,.28,0,.42-.14.7v.56c0,.84,0,2.09-.28,2.93.14.14,0,.7,0,.98,0,.42-.14.7,0,1.12h0c-.14.42,0,.84-.14,1.12-.7-.42-.14.84-.14,1.12s-.14.42-.14.7.14.42.14.84c0,.56-.14.98-.28,1.54-.14.56-.14.98-.28,1.54v.28h.14v1.26c0,.98-.14,1.82-.14,2.79,0,.28,0,.56-.14.84v2.23c0,.56-.14.98-.14,1.54v3.35c0,.28.14.84,0,.98.28.28,0,.42,0,.7,0,.14.14.42.28.7.14.28.14.42.14.7s.28.42.28.56q.14.14.28.28.14.14.28.14c.28,0,.42.14.7.28.42.28.98.28,1.54.28h.42c.14,0,.14-.14.42-.14s.56,0,.84-.14c.14,0,.14-.14.28-.28.14,0,.14-.14.28-.14.14-.14.42-.14.7-.28.42-.14.7-.42.98-.56.14-.14.42-.28.56-.42.14-.28.28-.28.56-.42.14-.14.42-.28.56-.42.28-.28.7-.56.98-.84.14-.28.14-.56.42-.42.14,0,.56.14.7,0s0-.56.28-.84c0,.14.14.28.42.42h.28c.14,0,.14-.14.14-.28,0-.28.14-.42.14-.56,0-.56-.42-.28-.7-.28s-.14.14-.14-.14v-.56l.42-.84c.14-.28,0-.56,0-.84,0-.14.14-.14.14-.28v-.42c0-.28,0-.56.14-.84,0-.14.14-.28.14-.42s-.14-.14-.14-.28h0c.14,0,.14-.28.14-.42.14-.14.14-.28.14-.56,0-.14,0-.28.14-.56,0-.14.28-.42,0-.42-.14-.28.14-.98-.28-1.26.14-.28.28-.56.14-.84,0-.14,0-.28-.14-.42,0-.14-.14,0,0-.14,0-.14.14-.28.14-.42s.14-.14.14-.28v-.56h0v-.84q0-.14.14-.28c0-.14,0-.28.14-.42v-.84c0-.14,0-.28.14-.42v-.42c0-.28.14-.56.14-.84s.14-.42.14-.7v-.84c0-.28.28-.42.28-.7s-.14-.7,0-.84h.14v-.42c0-.14.14-.28.14-.28.14-.28.14-.42.14-.7v-1.68c0-.28-.14-.56,0-.84l.14-.14c.14-.28.14-.7.14-1.12v-.42c0-.14.28-.14.28-.28.14-.14,0-.42,0-.7v-1.54c0-.28.14-.42.14-.7,0-.56-.14-1.12-.14-1.54v-.7c0-.14.28-.42.28-.56,0-.28.14-.56.14-.7s.14-.56.14-.7c0-.28-.14-.42,0-.84,0-.14.14-.14.14-.28v-.42q0-.28.14-.7c.14-.28.14-.56.14-.84v-.28c0-.14-.14-.14-.14-.28s0-.42.14-.56c.14-.42.28-.56.42-.84,0-.14.14-.42.14-.56s-.28-.28-.28-.56c0-.14,0-.56.14-.7,0-.14.28-.28.28-.42s-.14,0-.14-.14c-.14-.14-.28-.42-.28-.56-.14-.28-.28-.56-.28-.98,0-.28,0-.84.14-.98-.42-.56.14-.28.14-.56M103.64,101.1c.14-.14,0-.14-.14-.14h0c-.28.14-.7.14-.98.28s-.56.28-.98.42c-.14,0-.14.14-.28.14-.14.14-.28.14-.42.14s-.28.14-.28.14c-.14,0-.28.14-.42.14q-.14.14-.28.28c-.14,0-.14.14-.28.14h-.14l-.14.14c-.42.28-.7.56-1.12.98-.14.14-.28.28-.56.56-.14.14-.28.42-.42.56,0,0,0,.14-.14.14,0,0-.14,0-.14.14q-.14.14-.14.28c-.14.28-.14.42-.28.56-.14.28-.14.56-.28.84-.14.28-.28.42-.28.7,0,.14-.14.28,0,.42-.14.14-.14.42-.28.7,0,.28-.14.7-.28.98-.14.56-.14,1.12-.28,1.68,0,.42,0,.98-.14,1.4v1.12c0,.14-.14.28-.14.28.14,0,.14.28.14.42v.56c0,.42-.14.98-.14,1.4,0,.56-.14.98-.14,1.54v.84c0,.28-.14.56-.14.84v2.51c0,.28,0,.56-.14.84,0,.28-.14.56-.14.98v.42c0,.14-.14.28,0,.28-.14.14-.14.42-.14.56v1.12c0,.14-.14.14-.14.28-.14.28-.14.56-.28.84-.28,0-.28.7,0,.7,0,.14.14.28,0,.42.14.14-.14.42,0,.42,0,.14-.28,1.12,0,.98v.42q-.14.14-.28.28c0,.14.14.28.14.42.14.28-.14.56,0,.7s.14.14.14.28v.14q0,.14-.14.14c0,.14,0,.28-.14.42,0,.14-.14.28-.14.28v1.26c0,.14-.14.28-.14.42s0,.14.14.28c0,.14,0,.28.14.28.14.28.14.56,0,.84h0c0,.28.14.42-.14.7-.14.14,0,.14,0,.28s.14.42.14.56c0,.28-.14.56-.14.84v.84c0,.28-.28.42-.28.7v.42c0,.14-.14.14,0,.28,0,.14.14.28.14.42v4.61c0,.14.14.14.14.28v.42c0,.14.14.14.14.28v.14s.14,0,.14.14v.28c0,.14.14.14.14.28q.14.14.28.28l.14.14.14.14v.14h.14c0,.14.14.14.14.14h.14v.28c.14,0,.28.14.42.14s.28.14.42.14c.14-.14.42,0,.56,0h.98l.14-.14h.42c.28,0,.42-.14.7-.28.14,0,.42,0,.56-.14h.28c0-.14.56-.14.7-.28s.42-.28.56-.42c.14,0,.14-.14.28-.14h.14l.14-.14h.14s0-.14.14-.14.14,0,.28-.14c.14,0,.14-.14.28-.14s.14-.14.28-.14c0-.14.14-.14.28-.14s.14-.14.28-.14h.42c.14,0,0-.28.14-.28,0-.14.14-.14.14-.28.28-.28.56-.42.7-.7q.14-.14.14-.28c0-.14.14-.14.28-.28.14-.14.28-.42.42-.7s.28-.42.42-.56.14-.42.28-.56c0-.14.14-.56.28-.56v-.28q0-.14.14-.28c0-.14.14-.28.14-.56s.14-.7.14-.98,0-.56.14-.84v-1.26q0-.14.14-.28v-.84c.14,0,.28-.28.28-.42v-.56c0-.14-.14-.42-.14-.56s.14-.14.14-.14c.14-.14,0-.14-.14-.14v-2.93c0-.14.14-.28.14-.42s-.28-.28,0-.28v-3.35c0-.14,0-.28.14-.42-.14,0-.14-.28-.14-.42.28,0,.14-.42.14-.56v-.84c0-.28.28-.42.28-.56s-.14-.14-.14-.28v-1.12c0-.28.14-.42.14-.7h-.14l.14-.14c-.14,0-.14-.14-.14-.14h.14v-.42c0-.14.14-.28.14-.42-.14-.14-.14-.28,0-.42q0-.14.14-.28c0-.14.14-.14.14-.14.28-.14.14-.42-.14-.42,0-.14.28-.14.28-.14.14-.14,0-.14.28-.14h.14l.14-.14c0-.14-.14-.28-.14-.28v-.42c0-.14-.14-.28,0-.42,0-.14.14-.28.14-.28v-.42c0-.14.28-.28.42-.42.14-.14,0-.14,0-.42v-.42c0-.14,0-.28.14-.42.14-.14.14,0,.28-.14,0-.14-.28-.14-.28-.14,0-.14,0-.28.14-.42.14-.14.42-.14.56-.42q-.14-.14-.14-.42,0-.28.14-.56c0-.14.14-.28.28-.42.14-.14.14-.42.28-.42,0-.14,0-.28.14-.28,0-.14.14-.28.28-.28.14-.14.28-.42.42-.7.14-.14.28-.42.42-.56s.28-.42.42-.56.28-.42.42-.7c.14-.14.28-.14.28-.28.14,0,0-.14.14-.14h.28c.14,0,.14-.14.28-.14,0,0,.14-.14.28-.28q.14,0,.14-.14,0-.14.14-.14h.28s0-.14.14-.14.14-.14.14-.14c0,0,.14,0,.28-.14h0c.14-.14.28-.14.42-.28.14,0,.42-.14.42-.42.14,0,.42-.14.56-.28.14-.14.42-.28.56-.42q.14-.14.28-.28l.14-.14s.14,0,.14-.14c.14,0,.14-.14.28-.28.14-.14.28-.14.28-.14.14-.14.42-.28.56-.42.14-.14.28-.28.42-.42h.14l.14-.14q.14,0,.28-.14c.28-.14.42-.84.84-.84.14-.14.14-.42.28-.56,0-.14.14-.14.14-.28q.14-.14.28-.14c0-.14.14-.28.14-.28,0-.14.14-.14.14-.28.14-.28.14-.42.14-.7-.28,0,0-.7,0-.84v-.42c0-.14.14-.28.14-.42-.14,0-.14-.28-.14-.28,0-.14.14-.14.14-.28h0c0-.14-.14-.28-.14-.28l-.14-.14v-.14h-.14v-.14h0c0-.14-.14,0-.14-.14s-.14-.14-.14-.28v-.14c0-.14-.14-.14-.14-.14v-.42q-.14-.14-.28-.28-.14-.14-.14-.28l-.14-.14v-.14q-.14-.14-.28-.28c-.14-.28-.28-.28-.42-.42-.14,0-.14-.14-.28-.14s-.28,0-.42-.14c-.28-.14-.56-.14-.84-.14h-.84c-.14,0-.28,0-.42.14-.14,0-.28.14-.42.14s-.14,0-.28.14h-.28v.14c-.14,0-.28.14-.42.14s-.14-.14-.28,0v.28s-.14.14-.28.14c0,0-.14-.14-.14-.28h0v.14c-.14,0-.14.14-.28.14,0,.14.14.14.14.14-.14.14-.28.14-.42.14,0,0,0-.14-.14-.14h-.28c-.14,0-.14.14-.28.14s-.28,0-.28.14c-.28,0-.14.28-.28.42-.14.14-.42,0-.56,0,0,0-.14.14-.14,0v.14c-.28,0-.42,0-.42.28.14,0,.14-.14.28-.14s0,.14,0,.14c-.14,0-.42.14-.7.14s-.42.14-.56.14-.14.28-.42.28c-.28.14-.56.14-.84.28-.28,0-.56.28-.84.28q-.14,0-.28.14c-.14.14-.14,0-.42,0-.14,0-.42,0-.56.14-.42,0-.84,0-1.26.14-.14,0-.42,0-.56.14-1.12-.28-1.26-.14-1.68,0,.14-.14.14,0,0,0M177.37,51.81c0,.14,0,.42.14.56s.14.28.14.56v.28c0,.14.14.14.14.14.14.42.42.56.7.7.14.14.28.28.42.28q.28,0,.56.14c.28.28.7.14.98.28s.56,0,.84.14q.28,0,.56-.14h.28q.14,0,.14.14h.56l.14-.14c.28-.14.56-.14.84-.42.14-.14.28-.28.42-.28.14-.14.28,0,.42-.14.14,0,.14-.14.14-.28s.14-.14.14-.14c.14-.14.42-.28.56-.28.28-.28.7-.42.84-.84.14-.14.14-.28.28-.42.14-.14.14-.28.28-.42.14-.14.14-.28.28-.42.14-.28.42-.42.56-.56.14-.14.28-.42.42-.56s.28-.14.42-.28,0-.14,0-.28,0-.14.14-.14c0-.14.14-.14.14-.14,0-.14.14-.14.14-.28l.14-.14v-.28l.14-.14v-.56c0-.14.14-.28.14-.56.14-.14.14-.28.28-.28v-.14c0-.14,0,0-.14-.14v-.14q0-.14-.14-.28v-.14s.14,0,0-.14c-.14,0-.14-.42-.14-.56v-.28c0-.14-.14-.14-.14-.28l-.14-.14c0-.14-.14-.14-.14-.28l-.14-.14c0-.14-.14-.14-.14-.28s0-.14-.14-.28l-.14-.14c-.14-.14-.14,0-.14,0-.14,0-.42.14-.56,0q-.14,0-.28-.14h-.28c-.14,0-.14-.14-.14-.14h-2.23q-.14,0-.28.14c-.14.14-.28.14-.56.14-.14,0-.28.14-.42.14h-.28c-.14,0-.14.14-.14.14-.14,0-.28,0-.42.14l-.14.14c-.14,0-.28.14-.42.14s-.14,0-.14.14c-.14.14,0,.14-.14.14s-.14,0-.14.14l-.14.14h-.14l-.14.14c-.14,0-.14.14-.14.14h-.28l-.14.14c-.14.14-.14,0-.28.14-.14,0,0,.14-.14.14-.14.14-.28.14-.42.28l-.14.14q-.14,0-.28.14l-.14.14q0,.14-.14.14s-.14,0-.28.14v.14l-.14.14c-.14.14-.14.28-.28.28q0,.14-.14.28l-.14.14s-.14.14-.14.28,0,.14-.14.14c-.14.14-.28.42-.28.56s-.14.14-.14.28c0,0,0,.7-.14.56v.42h-.14v.7l-.14.28v.28c0,.14-.14.42,0,.56.14,0,.28.14.42.28M51.83,267h9.36v-3.49h-9.36v-5.31h10.89v-3.77h-15.22v22.34h15.5v-4.05h-11.17v-5.73ZM218.56,268.25l5.03,8.38h-4.89l-4.61-7.4h-4.33v7.4h-4.33v-22.34h9.91c.98,0,1.95.28,2.79.7s1.68.98,2.23,1.68c.56.7,1.12,1.54,1.54,2.37s.56,1.82.56,2.65c0,1.4-.42,2.79-1.12,3.91-.56,1.26-1.54,2.09-2.79,2.65M218.29,261.69c0-.56-.14-.98-.28-1.4-.14-.42-.42-.84-.7-1.12-.28-.28-.56-.56-.98-.7s-.7-.28-1.12-.28h-5.31v7.26h5.45c.42,0,.84-.14,1.12-.28s.7-.42.84-.84c.28-.28.42-.7.56-1.12.28-.56.42-.98.42-1.54M169.97,110.74c0,.14.28.7.28.7.14.14.14.42.28.56.14.14.42.28.56.42.14.14.42.14.42.28.28,0,.7.14.7.14.28.14.7.14.84.14h.98c.14,0,1.12-.42,1.26-.42.28-.14,1.12-.56,1.26-.7.28-.14.56-.28.84-.42h.14s0-.14.14-.14c.14-.14.28,0,.42-.14,0,0,.42-.42.56-.42s.28,0,.42-.14c0,0,0-.14.14-.14,0,0,.14,0,.28-.14.14-.14.28-.42.42-.56.14-.28.42-.42.7-.56.14-.14.7-.56.7-.84.14-.28.14-.42.28-.56.14-.14.14-.28.14-.42,0-.28.14-.14.28-.14.28-.14.28-.28.14-.56,0-.28.14-.42.14-.7-.14.14-.14-.14-.14-.14h.14v-.28c-.14,0,0-.14,0-.28s.14-.28.28-.28c0,0,.14,0,0-.14,0,0-.14,0-.14-.14v-.28c.14-.14.14-.28,0-.42q-.14-.14-.28-.28c-.14-.14-.14-.28-.14-.42,0-.28,0-.56.14-.84v-1.26s.14,0,.14-.14v-.28l.14-.14c0-.14-.14-.14,0-.28-.14-.14,0-.56,0-.84v-.42c-.14-.56,0-1.26,0-1.4v-1.12c0-.14-.14,0-.14-.14l.14-.14v-.14c0-.14.14-.28.14-.42v-.28h.14s.42.28.56.28c0,0,.14.14.14,0v-.56s0,.14-.14.14l-.28-.14v-.14c.14,0,.14-.14,0-.28,0,0-.14,0,0,0h0q0-.14-.14-.14h-.28c-.14,0,0-.14,0-.14v-.28l.14-.14.14.14s0,.14-.14.14c0,.14.14,0,.14,0,0,0,0,.14.14.14,0,0,.14,0,.14.14v.14h.14v-.14s0-.14.14-.28l.14-.14q0-.14-.14-.14s0-.14-.14-.14l-.14-.14s-.28-.14-.42-.14l-.14-.14v-.7c0-.14-.14-.28,0-.42,0,0,0-.14.14-.14,0-.14.14,0,.14-.14.14,0,0-.14-.14-.14-.14-.14-.14-.42-.14-.56s.14-.14.28-.14.14.14.14,0c.14,0,0-.14,0-.14,0,0,.14-.14,0-.14,0,0,0-.14-.14-.14,0-.14.14-.28.28-.28,0,0,.14.14.14,0v-.14c0-.14-.14-.14-.28-.28,0-.14,0-.28.14-.42l.14-.14v-.28c-.14,0-.14-.14-.14-.14,0-.14-.14-.14-.14-.28s0-.14.14-.14.28,0,.14-.14c0-.14-.28-.14-.28-.28v-.14s-.14,0-.14-.14v-.56c0-.14.14-.14.14-.14v-.14s0-.14.14-.14l.14-.14v-.28s-.14,0-.14.14l-.14.14v-.42l.14-.14s.14,0,.14-.14,0-.14-.14-.14h-.14v-.14s-.14,0-.14-.14v-.7c0-.14.14,0,.14-.14v-.14h0c0-.14-.14-.14-.28-.14,0,0,0-.28.14-.28s.14-.14.14-.14v-.14l.14-.14h-.14l-.14-.14v-.56c0-.14.14-.14.14-.42,0,0,.14-.28.14-.42h0v-.14l-.14-.14-.14-.14h0v-.14h0s.14,0,0,0h-.14s0,.14,0,0v-.14s.14,0,0,0h-.14.14l.14-.14.14-.14s0-.14,0,0h-.14v-1.82h0v-.84h.28v-.28h-.14v-.14l-.14-.14-.14-.14v-.14h.14v.14l.14-.14v-.42c0-.14-.14,0-.14-.14v-.14s-.14,0,0-.14h.28c0,.14,0,0,.14,0v.14h.14s-.14-.14,0-.14c0,0,.14,0,.14-.14v-.14s.14,0,.14-.14h-.28s-.42,0-.28,0h0v-.14h.14l.14-.14.14-.14h0s.14,0,.14-.14h-.14v-.42h.28s.14-.14,0-.14h-.14v-.14h0v-.28s.14,0,.14-.14c0,0,.14,0,.14-.14s0,0-.14-.14v-.14h0v-.14h-.14l.14-.28h.14-.14v-.42h0l.14-.14.28-.28s.14-.14,0-.14c0,0,0-.14-.14-.14h0v-.28h.42v-.14h0v-.14c-.14,0-.14-.14-.14-.14,0-.14.14,0,.14-.14l.14-.14v-.28s.14,0,.14-.14v-.28h-.14v-.42l.14-.14v-.28h-.14v-.14h0v.14h0c0-.14-.14-.14-.14-.14v-.42h-.14l.14-.14v-.14h-.42v.14-.14s-.14-.14,0-.14h0v-.14h.14v-.14h.14v-.56h0v-.56h0v-.14h-.14s-.14,0-.14-.14l-.14-.14-.14-.14c0-.14-.14,0-.14-.14h-.14c-.14,0-.14-.14-.14-.14,0,0-.14-.14-.28-.14h-.56l-.14.14h-.98s0,.14-.14.14c0,0,0-.14-.14-.14h-.28s-.14,0-.14.14l-.14.14h-.56q-.14,0-.14.14h-.14q-.14,0-.28.14v.14h-.14l-.14.14-.14.14-.42.14s-.42.28-.42.42l-.14.14s-.56.42-.56.56c0,0-.14,0-.14.14,0,0,0,.14-.14.14l-.28.14v.14s-.14,0-.14.14l-.42.42s-.28.28-.42.42l-.14.28h-.14l-.14.28h-.14q0,.14-.14.28s-.28.42-.28.56v.14c0,.14-.14.28-.14.42h0l-.14.14h0v.28c0,.14-.14,0-.14,0h0v.42s0,.14-.14.14c0,0-.14.14-.14.28v.28h-.14s-.14.14-.14.42l-.14.7h0c0,.14-.14.14,0,.28v.56h-.14v.14h-.14s.14,0,.14.14h-.14v.84s-.14.28-.14.42l.14.14v.42h0c0,.14,0,.28-.14.28v.84h-.14.14-.14v.42h.14v.14h-.14v.84q0,.14-.14.14h0v1.4s-.14.14,0,.28v.42h-.14v1.96s-.14.14,0,.14h0v.28h.14-.14v.56c0,.14.14.14.14.28h-.14c.14,0,0,.14.14.14v.56s-.14.14-.14.28v1.26c0,.14,0,.28-.14.28h0s.14.14.14.28v.14h-.14v.7c0,.14-.14.28-.14.42v.56s.14.14,0,.14c0,0-.14,0-.14.14,0,0,.14,0,.14.14l-.14.14v.14h.14l.14.14c0,.14-.14,0-.14,0h0v.84l-.14.42v.14l.14.14-.14.14v.14h.14v.14h-.14v.42c0,.14,0,.7-.14.84,0,.14-.14.14-.14.14,0,0,0,.14.14.14v.28c-.14.14,0,.56-.14.7,0,.14,0,.7-.14.84v.42c0,.14-.14.42-.14.56,0,0-.14.7-.14.84s0,.14-.14.28v.42c0,.14,0,.84-.14.84v.28l-.14.14h0v.28c0,.14-.14.14,0,.28,0,0,.14.14,0,.14h0v.7c0,.28-.14,1.26-.14,1.4,0,.28-.14.56-.14.84v.98c0,.28-.14.7-.14.84v.98c0,.14-.14.28-.14.42v.42c0,.14,0,1.26-.14,1.4v1.4c-.98-1.12-.98-.84-.84-.56M236.58,267h9.36v-3.49h-9.36v-5.31h10.89v-3.77h-15.22v22.34h15.5v-4.05h-11.17v-5.73ZM82.97,268.25h4.47v1.54c-1.68,2.09-3.63,3.07-5.86,3.07-.98,0-1.82-.14-2.65-.56-.84-.42-1.54-.98-2.09-1.54-.56-.7-1.12-1.4-1.4-2.37s-.56-1.95-.56-2.93.14-1.95.42-2.79.7-1.68,1.26-2.37,1.26-1.26,1.95-1.68c.84-.42,1.68-.56,2.65-.56,1.26,0,2.23.28,3.35.84.98.56,1.82,1.4,2.37,2.51l3.21-2.37c-.7-1.54-1.82-2.65-3.35-3.49-1.54-.84-3.35-1.26-5.45-1.26-1.54,0-2.93.28-4.33.84-1.26.56-2.51,1.4-3.49,2.37s-1.68,2.23-2.23,3.49c-.56,1.4-.84,2.79-.84,4.33,0,1.68.28,3.07.84,4.47.56,1.4,1.26,2.65,2.23,3.63.98.98,2.09,1.82,3.35,2.37,1.26.56,2.65.84,4.19.84,2.37,0,4.47-.84,6.28-2.65v2.51h3.63v-11.45h-8.1v3.21h.14ZM151.26,258.06h7.12v18.43h4.33v-18.43h7.12v-3.77h-18.57v3.77h0ZM196.36,261.27c.56,1.4.84,2.79.84,4.19,0,1.54-.28,2.93-.84,4.33-.56,1.4-1.26,2.51-2.23,3.63-.98.98-2.09,1.82-3.49,2.51-1.4.56-2.79.98-4.47.98s-3.21-.28-4.47-.98c-1.4-.7-2.51-1.54-3.49-2.51-.98-1.12-1.68-2.23-2.23-3.63-.56-1.4-.84-2.79-.84-4.19,0-1.54.28-2.93.84-4.33.56-1.4,1.4-2.65,2.37-3.63.98-1.12,2.09-1.95,3.49-2.51s2.79-.98,4.47-.98,3.07.28,4.47.98,2.51,1.54,3.49,2.65c.84.98,1.54,2.09,2.09,3.49M192.73,265.46c0-.98-.14-1.95-.42-2.79s-.7-1.68-1.26-2.37-1.26-1.26-2.09-1.68c-.84-.42-1.68-.56-2.79-.56s-1.95.28-2.79.7-1.54.98-2.09,1.68-.98,1.54-1.26,2.37-.42,1.82-.42,2.79.14,1.95.42,2.79c.28.98.7,1.68,1.26,2.37s1.26,1.26,2.09,1.68c.84.42,1.68.7,2.79.7s1.95-.28,2.79-.7,1.54-.98,2.09-1.68.98-1.54,1.26-2.37c.28-1.12.42-2.09.42-2.93M260.32,85.6v-.42c-.14,0-.28.14-.42,0-.14-.14.28-.28.28-.28v-.14q0-.14.14-.28c.14,0,0,0,0-.14v-.14c0-.14,0,0-.14-.14l-.28-.14c0-.14.14-.14.14-.28s-.14-.14-.28-.28v-.14q0-.14-.14-.14v-.42c-.14,0-.14-.14-.14-.28s-.14-.14-.28-.28-.28-.14-.14-.28c0-.28,0-.14-.14-.28,0-.14-.14-.14-.14-.28s-.14-.14-.28-.28l-.14-.14-.14-.14c-.14,0,0-.14-.14-.14s-.14-.14-.28-.28c-.14,0-.28-.14-.42-.14,0,.14.14.14.14.14-.14,0-.42,0-.42-.14s0-.28-.14-.42c-.14.14-.14,0-.28,0,0,.14.14.14.14.28h-1.12c-.14,0-.28-.14-.56-.14-.14,0-.28-.14-.56-.14-.14,0-.28-.14-.42-.14s-.42-.14-.56-.14c-.42,0-.84.14-1.26.14h-.7s-.14,0-.14.14c-.14,0-.28,0-.42.14-.28,0-.56.14-.7.14-.28,0-.56.14-.7.28q-.14,0-.28.14c-.42.14-.98.42-1.4.56-.28.14-.42.14-.7.42-.14,0-.14.14-.28.14,0,0,0,.14-.14.14l-.14-.14c-.14,0-.28.28-.42.28h-.14c0,.14-.42.28-.56.42-.28.14-.42.28-.56.28-.28.14-.42.28-.56.28-.28.14-.56.28-.84.42h-.28c-.14,0,0,.14-.14.14,0,0-.14,0-.28.14,0,.14-.42.14-.28.28h-.14c-.14.14-.28.14-.56.28l-.14.14s-.14,0-.28.14c-.14,0-.42.14-.42.28v.14h-.14c-.14,0-.28,0-.28.14,0,0-.14.14-.28.14h-.14v.14h-.14c-.14.14-.28.14-.42.14s-.28.14-.28.14c-.28.14-.42.14-.7.28-.14.14-.42.28-.7.28-.14,0-.28,0-.28.14s-.56.28-.56.28c-.14.14-.42.14-.7.28-.42.14-.98.42-1.54.42h-.56c-.14,0-.28-.14-.42-.14v-.14c-.14,0-.42-.14-.56-.28-.28-.28-.14-.42-.28-.56-.14,0-.28-.14-.56-.14-.14.14-.28,0-.28-.14,0,0,0-.14.14-.14v-.14c0-.28-.14,0-.28-.14-.14,0-.14-.28-.14-.42h0v-.42c-.14,0-.14-.28-.28-.28,0,.14-.14.14-.28.14s-.14-.14-.14-.28h.14c0-.14-.14,0-.14-.14s-.14-.14,0-.14c.28,0,.42-.28.42-.42v-.28h-.14s0-.14-.14-.14-.28.14-.28,0v-.42c-.42,0,.14-.42.14-.56-.14,0-.28,0-.42-.14-.14,0-.28,0-.28-.14l.14-.14v-.14q-.14-.14,0-.28c0-.14.14-.14.14-.28,0-.28-.14-.14-.14-.28s0-.28.14-.28c.14-.14.14.14.28.14s.14-.28.14-.28c0-.14-.14-.14-.28-.14-.28,0-.42-.42-.28-.56s.28,0,.42-.14-.14-.14-.28-.14-.14-.14,0-.28c.14,0,.28.14.42,0v-.28c0-.14.14-.28-.14-.28s0,.14-.14.28-.28.14-.28,0c0,0,.14,0,.14-.14v-.56c0-.14-.14-.28.14-.14.14,0,.14.28.28.14.14-.14,0-.56,0-.7v-.28c0-.14-.14-.14-.14-.28s0-.14.14-.28c0-.14.14-.14.14-.28,0,0,0-.28.14-.14v.28l.14-.14v-.14c0-.14-.14,0-.14-.14s0-.14-.14-.28v-.14c0-.14-.14-.14-.14-.28,0-.28.28-.14.28-.28s.28-.28,0-.28c-.14,0-.42-.14-.42-.14q-.14-.14-.14-.28v-.28s.14-.14.14-.28-.14-.14-.14-.28c.14-.14.28,0,.42-.14s-.14-.14-.14-.28c-.14,0-.14-.14-.14-.28v-.14l.14-.14v-.14s-.14-.14,0-.14h.42q.14-.14,0-.28c0-.14,0-.28-.14-.28s-.28,0-.28-.14v-3.49c0-.42-.14-.7,0-.98,0-.14.14-.28.14-.42l-.14-.14c0-.14,0-.56.14-.7s.28,0,.42,0,.42.14.14-.14c-.14-.14-.28-.14-.28-.28v-.14s-.14.14-.28,0v-.42c0-.28,0-.14.28-.14.14,0,.28,0,.28-.28.14-.28,0-.14-.14-.28-.14,0-.28-.14-.42-.28-.14-.28,0-.7,0-.84.14,0,.14.14.28,0,.14,0,.14-.14.28,0,.14,0,.14.14.28,0v-.14l.14-.14q-.28-.14-.28-.42c0-.14,0-.28-.14-.42q-.14-.14-.14-.28c0-.14.14,0,.14-.14,0,0,0-.14-.14-.28,0,0,.28,0,.14-.14,0-.14-.28,0-.28-.14s.14,0,.28-.14c.14-.14,0-.28,0-.28q-.14-.14-.14-.28c0-.14,0-.28.28-.28.14,0,.14.14.28.14s.14-.14.14-.28c-.28.28-.14-.14-.28-.14-.14-.28-.14-.56,0-.84.14-.14,0-.14,0-.42v-.14c0-.14.14-.14,0-.14-.14-.14-.42.28-.42.42,0,0-.14.28-.28.14-.14,0,0-.28,0-.42s.14-.14.14-.14v-.28q-.14-.14-.14-.28v-.42c0-.28,0-.56.14-.84l.14-.28h.28s0-.14.14-.14h.28c.14,0,.14-.14,0-.14,0-.14-.14,0-.14,0q-.14,0-.14-.14c0-.14-.14-.14-.14-.28,0-.28-.14-.42,0-.56,0-.14.28,0,.14-.28,0-.14.28-.14.14-.14-.14-.14-.28,0-.42,0-.14-.14-.14-.28-.28-.42q-.14-.14-.28-.28c-.14-.28,0-.56,0-.84.14,0,.42.14.56,0-.14-.14-.14-.56-.28-.56s-.28,0-.42-.14v-.42c0-.28-.14-.42-.14-.7,0-.14.14-.28.14-.42-.14-.14-.14.28-.28.14,0-.28-.14-.42-.14-.56s0-.14-.14-.28-.14-.14-.28-.28q-.14-.14-.14-.28c0-.14.14-.14.14-.28,0-.42-.28,0-.28.14-.14,0-.42-.42-.42-.56q-.14-.14-.28-.28c-.14,0-.28-.14-.28-.28-.56-.28-.98-.42-1.54-.56-.28-.14-.56-.14-.84-.14s-.7-.14-.98-.14h-.84c-.28,0-.56.14-.84.14-.14,0-.28.14-.28.14h-.42c-.14,0-.28,0-.42.14-.14,0-.28.14-.42.14-.28.14-.56.14-.7.28q-.14.14-.28.28c-.14.14-.42.14-.56.28-.28.14-.56.28-.7.42-.42.28-.98.56-1.4.84-.28.14-.42.28-.7.42-.14.14-.42.28-.56.42-.14.14,0,.28-.14.28-.14.14-.28.28-.42.28-.28.14-.42.42-.56.56-.14.14-.28.42-.42.56s-.14.14-.28.28c-.14.14-.28.14-.42.28-.28.28-.84.56-.98,1.12v.14c-.14,0-.14.14-.14.28q-.14,0-.28.14c-.14.14-.14.42-.28.56-.14.14-.42.28-.56.42q-.14.14-.28.14-.14.14-.28.28c-.14.14-.42.42-.56.42-.28,0-.42.28-.7.28-.14,0-.28,0-.42.14-.14,0-.28.14-.42.28-.14,0-.28.14-.42.14h-.42c-.28,0-.42.14-.7,0-.14,0-.28,0-.42-.14-.14,0-.28-.14-.42-.14s-.42.14-.56,0c-.14,0-.14-.14-.28-.28,0-.14-.14-.28-.28-.14h-.28c-.28-.14-.56,0-.84,0-.14,0-.28.14-.28.14q-.14.14-.28.28c-.14.14-.7,0-.84,0-.28-.14-.56,0-.84,0-.56,0-1.26.14-1.82.28-.28,0-.56.14-.84.28-.14,0-.28.14-.42.14h-.28c-.28.14-.42.28-.7.42-.28.14-.56.28-.7.42-.14.14-.28.14-.42.28,0,0,0,.14-.14.14h-.14s0,.14-.14.14c0,0-.14,0-.28.14-.14,0-.14.28-.42.28s-.42.42-.7.7c-.14.14-.28.42-.42.56-.14.28-.28.42-.42.56-.14.28-.14.42-.28.7-.14.28-.28.42-.42.7,0,.28-.14.42-.28.7-.28.56-.42.98-.56,1.54,0,.28-.14.7-.14.98v.84c-.14.56-.14,1.26-.14,1.82s0,.98-.14,1.54c-.14.42,0,.84,0,1.12,0,.42-.14.7,0,1.12v1.4s0,.14.14.28v2.79c0,.42-.14.7,0,1.12v.42c0,.28-.14.28-.14.56v1.82c-.14.14,0,.28,0,.28-.14.14-.14.42-.14.7v.42c0,.14-.14.28-.14.42l.14.14c0,.14-.14.14-.14.14v6.28c0,.14-.14.28,0,.42h.14c.14.14,0,.56,0,.7s.14.56-.14.56h.14v.7c0,.14-.14.28,0,.42.28,0,0,.28,0,.42v2.37c0,.14-.14.42-.14.56,0,0,.14.14.14.28v1.95c0,.14,0,.28.14.42v1.68c0,.28,0,.7.14,1.12,0,0,.14,0,.14.14v.14c0,.14.14.14.14.28.14.14.14.28.14.42.14.42.42.56.7.7s.56.42.98.56c.14,0,.28.14.56.14h.56c.42,0,.7.14.98,0,.42-.14.84,0,1.12-.14.42-.14.7-.28,1.12-.42.14-.14.28-.14.42-.28s.28-.14.42-.14.28-.28.42-.28h.28c.14,0,.14-.14.28-.14.28-.14.42-.14.7-.28.14,0,.14-.14.28-.28.14-.14.28-.14.42-.28l.14-.14q.14,0,.28-.14s0-.14.14-.14l.14-.14c.14-.14.28-.28.28-.42h0c.14.14.56,0,.42,0h-.14c-.28-.28.42-.28.56-.42v-.98h.14s0-.14.14-.14c.14-.14.14,0,.28-.14.28-.14,0-.14-.14-.28l.14-.14v-.28s.14,0,.14-.14v-.28c.56,0,.14-.14.28-.28,0-.14.14-.14.28-.28,0,0,.14-.14.28-.14.14-.14-.14-.14,0-.28,0-.28.14-.14.42-.14,0-.28.14-.42,0-.56,0-.14-.14-.28-.28-.42-.14-.14-.14-.42-.14-.56,0-.28-.14-.42-.14-.56.14-.14.14.56.42.56s.14-.14,0-.28-.14-.14-.14-.42v-.14s-.14,0-.14-.14.14-.28.28-.42c0,0,.14-.28.14-.42,0,0,0-.14-.14-.14v-.14c.14-.14.42-.28.42-.56,0-.14-.14-.28-.14-.42,0,0-.28.14-.14-.14-.14,0-.56,0-.56-.28.14-.14.42,0,.56-.14v-.28c0-.14-.14,0-.14-.14-.28,0-.14-.14-.28-.42,0-.14-.14-.14,0-.28q.14,0,.14-.14c0-.14-.14-.14-.14-.28s.28-.14.42-.28.28-.42.28-.56h-.14c-.14,0-.14.14-.28.28-.14.14-.28,0-.28-.14s.28-.28.28-.28c0-.14-.28,0-.28-.14s.14-.28.14-.42v-1.95c0-.14-.14-.42,0-.7v-.56q0-.14.14-.14h.28c0-.14-.14-.14-.14-.42-.14,0-.14-.14-.14-.14q-.14,0-.14-.14c-.14-.28.14-.28.14-.42-.28,0,.14-.42.28-.42.14-.14,0-.14-.14-.14v-.28s-.14-.56,0-.28c.14.14,0,.42,0,.56h.42q.14-.14.42-.14c.28-.14.14-.14,0-.28,0,0-.28,0-.28-.14-.14-.14.14-.14.14-.28v-.28c0-.14-.14-.14-.14-.28s.14,0,.28-.14c-.14-.14-.14-.28-.14-.28l.14-.14-.14-.14c-.28-.14-.42-.28-.42-.42q-.14,0-.14-.14c0-.14.14-.14.14-.28h0v-.42c.14,0,.28.14.42.14s.28-.14.14-.14c0-.28-.14-.28-.28-.42.14-.14.84,0,.56-.42q-.14,0-.14-.14h.28c.42,0,.14-.28.42-.42.14-.14,0-.28,0-.56,0-.14-.14-.14-.14-.28q-.14-.14-.28-.28.14-.14.14-.28c0-.14-.14-.14-.14-.28v-.42c0-.14-.14-.28-.14-.28,0-.14.28-.42.42-.42s.56.14.7-.14q-.14-.14-.28-.28h-.42c.14-.14.42,0,.56-.28,0-.14-.14-.14-.14-.28s.14-.14.14-.28c0,0,.28,0,.28-.14s-.14-.14-.28-.14c-.28,0-.56-.14-.42-.42l.14-.14h.14c.14-.14-.14-.14-.14-.28s.56,0,.28.28h.28q.14,0,.14-.14c.14-.14.28-.28.28-.42-.14-.14-.28,0-.42-.14s.14-.28.28-.42c.14,0,.14-.14.28-.28,0-.14-.14-.28-.14-.42l.14-.14v-1.12c0-.14-.14-.14,0-.28,0,0,0-.14.14-.14s.14.14.28,0c.14,0,0-.14,0-.14v-.14h.14c.14-.14,0-.28.14-.42,0-.14.14-.28.14-.42,0-.28.14-.56,0-.84,0-.14-.14-.28.14-.28.14,0,.28-.14.28-.14.28-.14.42-.28.56-.42.14-.14.28-.56.14-.84,0-.14-.28-.28-.28-.28h.14c.14,0,0,.14.14.14.14.14.14,0,.28,0,.14-.14.28-.28.42-.42.14-.28.42-.42.7-.56.14,0,.14-.14.28-.28.14-.14.28-.14.28-.14.14-.14.14-.56.28-.84.14,0,.42-.14.56-.28.14-.14,0-.14,0-.28s.14-.14.14-.28.14-.14.14-.28q.14-.14.28-.28.14-.14.42-.14c.42,0,.42-.42.56-.56,0,0,.14-.14.28-.14s.28,0,.42-.14.14-.14.28-.28c.14-.14.28,0,.42-.14s.42-.28.7-.42h.7q.14-.14.42-.14h.28c.14,0,0,.14.14.14,0,0,.14-.14.14,0l.14.14c.28.14.56,0,.84,0,.56,0,.98.42,1.26.84,0,.14.14.28.14.42s0,.28.14.28c0,0,.14,0,.14.14v5.73h-.14c0,.14.14,0,.14.14h0v1.68c0,.7-.14,1.26-.14,1.95v1.4h-.14v.14c0,.14-.14.28,0,.42h.14c0,.14.14.28,0,.42,0,.14-.14.14-.28.28-.14.14-.14.28-.14.42l.14.14v.84s.14,0,.14.14v.28c0,.28-.14.42-.14.7,0,.14-.14.28-.14.42v.42c0,.42,0,.7-.14,1.12-.14.28.14.42.14.7s.14.56.14.84,0,.7-.14.98c-.14.14,0,.56,0,.84v1.54c0,.14-.14.14-.14.14-.14.28,0,.28-.14.56,0,.28-.28.42-.14.56,0,.14.14.14.14.42v.42c0,.14-.14.28,0,.42,0,.14.14.28.14.42v.84c0,.56-.14,1.26,0,1.82v.84c0,.28,0,.56.14.7v.42c0,.14.14.28.14.42s.14.14.28.28c.14.14.14.28.14.42s.14.28.14.42.14.28.28.42c.14.14.28.42.42.56s.28.14.28.28c.14,0,.14.14.28.28.28.14.42.28.7.42.14,0,.28,0,.28.42,0,.14-.14.28-.14.42-.14,0-.28.14-.28.14-.14.14-.28.28-.56.28q-.14,0-.28.14c-.28.14-.56.42-.84.56-.28.14-.28.28-.56.42-.14.14-.42.14-.56.42-.14.14-.28.14-.28.14q-.14.14-.28.28-.14.14-.28.14c-.14,0-.14.14-.28.14-.28.14-.56.42-.84.56-.42.28-.98.42-1.4.7-1.12.56-1.95,1.26-3.07,1.82-.28.14-.56.14-.7.42-.14.14-.28.14-.42.28-.14,0-.28.14-.28.14-.42.42-.98.56-1.54.84-.14.14-.42.14-.56.42h0s-.28.14-.42.14-.28.14-.28.14c-.28.28-.7.42-.98.56q-.14,0-.14.14c-.14.14-.28.14-.42.28s-.28.28-.42.28-.42,0-.42.14c-.56.14-.98.56-1.4.84s-.98.42-1.4.7c-.14.14-.14.28-.28.28h-.14l-.14.14c-.14.14-.28.14-.42.14s-.14.14-.28.14c-.42.28-.98.56-1.4.84-.56.28-.98.42-1.54.84-.28.14-.42.28-.7.42-.28.14-.42.28-.7.42-.42.14-.84.42-1.26.7-.28.14-.42.28-.7.28-.28.14-.28.28-.56.42-.14,0-.28.14-.28.14h-.28c-.28.14-.42.42-.7.42-.56.28-.98.7-1.54.98-.14.14-.28.28-.56.28-.14.14-.28.14-.42.14s-.14.14-.28.28c-.14.14-.28.14-.28.14-.14,0-.14.14-.28.28q-.14.14-.28.14c-.14,0-.28.14-.28.28q-.14,0-.28.14c-.14.14-.14.28-.14.28h-.14s-.14,0-.14.14l-.14.14h-.14s0,.14-.14.14h-.14c-.28.14-.42.28-.56.42q-.14.14-.28.14c-.14,0-.28.14-.28.14l-.28.14c-.14,0-.14-.14-.28-.14s-.42.14-.42.28v.14l-.14.14c-.14.14-.28.42-.56.42-.14,0-.14-.14-.28,0q-.14.14-.14.28c-.14.14-.42.28-.56.42-.28.14-.42.14-.7.28s-.42.14-.7.28-.56.28-.7.42c-.28.14-.42.14-.56.42-.14.14-.28.28-.42.28s-.14.14-.14.14c-.14.14-.42.14-.56.28-.28.14-.42.28-.7.42-.14.14-.42.14-.56.28-.14,0-.42.14-.56.28-.28.14-.42.28-.7.56-.14.14-.42.28-.7.28-.28.14-.42.28-.7.42-.14.14-.28.28-.42.28s-.28,0-.42.14-.28.28-.42.28-.42.28-.42.42l.14.14c-.56.28-1.26.7-1.82.98-.7.28-1.26.84-1.82,1.12-1.12.7-2.23,1.4-3.35,2.09-.7.42-1.4.84-2.09,1.4-.14.14-.28.14-.28.28-.14,0-.28,0-.42.14-.14,0-.14.14-.28.28-.14.14-.28.14-.42.28-.28.14-.42.28-.7.42-.28.14-.42.28-.7.42q-.14.14-.28.28c-.14,0-.14.14-.28.14-.14.14-.42.28-.7.42-.14,0-.28.14-.28.14q-.14,0-.14.14c-.14.14-.28.14-.28.14-.14.14-.28.14-.28.28l-.14.14s-.14,0-.14.14c-.14,0-.14.14-.28.28h-.14l-.14.14q-.14.14-.28.14c-.14,0-.56.28-.7.28h0c0-.14,0-.42-.14-.7q.14-.14.14-.28-.14-.14,0-.42c0-.14.14-.28.14-.42s-.14-.14,0-.28c0-.28.14-.56,0-.7-.14-.28-.14-.42,0-.7s0-.42,0-.7,0-.56.14-.84c0-.28,0-.56.14-.7,0-.14.14-.28.14-.42v-.14l-.14-.14c0-.14.14-.14.14-.14.14-.14,0-.14,0-.28s.14-.14,0-.28l-.14-.14v-.14c0-.28-.28-.28-.14-.56s.14-.28.14-.56c-.28.14,0-.28,0-.28-.28,0-.14-.56-.14-.7h.28c0-.14-.14-.14-.28-.28-.14-.14,0-.14.14-.28s.28-.42.28-.56,0-.14-.14-.28q0-.14.14-.28v-.56c0-.14-.28-.14-.28-.42v-1.4l.14-.14c0-.14-.14,0-.14-.14v-.28c0-.14.14-.28.14-.56,0-.42.14-.7.14-1.12v-.42c0-.14.14-.14.14-.28.14,0,.14-.14.14-.14-.14-.14-.28,0-.28-.14v-2.09c.14-.28.28-.42.14-.7-.28,0-.14-.14,0-.28v-.56c0-.42.14-.84.14-1.26s0-.7.14-1.12v-.84s.14-.28.14-.14h0c-.28,0,0-.42,0-.56v-1.68c0-.14-.14-.7.14-.7,0-.84.14-1.68.28-2.51,0-.7,0-1.54.14-2.37,0-.28.14-.42.14-.56v-2.37c0-.14.14-.14,0-.28,0-.14-.14-.14-.14-.14,0-.14.14-.28.28-.42,0-.14-.14-.28-.14-.42s.14-.28.14-.56v-1.54c.14,0,.7-.28.42-.42,0,.14-.14.28-.28.14-.14-.14,0-.28,0-.42s-.14-.42,0-.42c0,0,.14,0,.14.14.14-.28-.14-.28-.14-.42s0-.28.14-.28,0,.14.28.14v-.42c0-.14-.14-.14,0-.28,0,0,.14,0,.14-.14v-.14c0-.14.14-.28.14-.42s-.14-.28-.14-.42v-.42c0-.14,0-.28-.14-.42q-.14-.14-.14-.28c.14-.28.42-.28.28-.7,0-.14-.14-.14-.14-.28s.14-.14.14-.28-.14-.14-.14-.28v-.42c0-.28-.14-.7.14-.84.14,0,.28-.14.14-.42,0-.14-.14-.28,0-.42,0-.14.14-.28-.14-.28,0-.14-.14-.28,0-.42,0,0,.28,0,.28-.14q.14-.14.14-.28c0-.14-.28-.14-.28-.28-.14-.14,0-.42,0-.56v-.42c0-.14.14-.14.14-.14-.14,0-.14-.14-.14-.28s0-.14-.14-.28c0-.14,0-.28.14-.42v-.84c0-.14.28-.14.14-.28,0-.14-.28-.14-.28-.28s.28,0,.42-.14l.14-.14c-.14-.14-.28,0-.42-.14-.14,0-.14-.14,0-.28.14-.28,0-.42-.28-.56q-.14-.14-.28-.28c0-.14-.14-.14-.28-.28-.14-.14-.28-.28-.42-.56-.28-.56-.98-.56-1.4-.84-.28-.14-.7-.28-.98-.28h-.98c-.56-.14-1.26,0-1.82.14-.28.14-.42.28-.7.28-.14,0-.28.14-.28.14h-.42v.14c-.14,0-.42.28-.42.14q-.14,0-.14.14c-.14,0-.28.28-.42.28-.14.14-.28.14-.56.42-.14.14-.28.28-.42.42-.14.14-.42.42-.42.56h-.14v.14c-.14,0-.28.14-.28.28v.14c0,.14-.14.14-.14.14l-.42.84c0,.14,0,.28-.14.42,0,.14-.14.28-.14.42v.84c0,.28-.14.56-.14.84v.56c0,.14-.14.28-.14.42,0,.28,0,.56-.14.84,0,.42-.14.7-.14,1.12v1.12c0,.28,0,.56-.14.84v.56c-.14.28,0,.56,0,.98v.42c0,.14-.14.28-.14.42l.14.14v2.37c0,.28-.14.56-.14.84v.84c0,.28-.14.7,0,.98,0,.14,0,.28-.14.42v2.79c0,.28-.14.42-.14.7,0,.14.14.56,0,.56-.14.14-.28-.14-.42.14,0,0-.14.28-.14.42s.14,0,.28.14c.14.28,0,.56,0,.84v.14s-.14,0-.14.14v.42c0,.28.14.7,0,.98s0,.56-.14.98c0,.28-.14.7-.14.98v.56l-.14.14v.14c0,.28,0,.56-.14.84,0,.28-.14.56-.14.84s-.14.42-.14.7.14.56,0,.84h-.14v1.4c-.14.42-.14.84-.14,1.26v.42c0,.14-.14.14-.14.28-.14.28,0,.7-.14.98,0,.28-.14.56-.14.84,0,.56-.14,1.12-.28,1.68v.42c0,.14,0,.28-.14.42-.14.28-.14.56-.14.84-.28.98-.56,1.95-1.26,2.79-.14.14-.28.28-.42.42-.28.28-.56.56-.84.98-.14.14-.28.28-.42.28h-.14c0,.14-.14.14-.14.28,0,0,0,.14-.14.14,0,0-.14,0-.14.14-.14,0-.28.14-.28.28-.14,0-.14.14-.28.14s-.28.14-.28.14c-.14.14-.28.14-.42.14s-.28.14-.42.14-.28.14-.42.28c-.42.14-.98.14-1.4.28h-1.26c-.14,0-.28-.14-.42-.14s-.28-.14-.42-.14-.28-.14-.42-.28c-.28-.14-.42-.42-.7-.7-.14-.28-.42-.42-.42-.7,0-.14,0-.28-.14-.42q-.14-.14-.28-.28c-.14-.56-.28-1.12-.42-1.68,0-.56-.14-1.12,0-1.68,0-.14.14-.28.14-.28,0-.14-.28-.14-.28-.28l.14-.28c0-.28,0-.42-.14-.7,0-.14,0-.28-.14-.42v-.42c0-.14.14-.14.14-.28.14-.28.14-.42.14-.7v-.84c0-.56,0-1.26.14-1.68.14-.28.14-.56.14-.84v-.84c0-.14-.14-.42,0-.56,0-.14.14-.14.14-.28v-.28c.14,0,.28-.56.28-.7,0-.28-.14-.56-.14-.84-.28,0-.14-.14-.14-.42l-.14-.14v-.56c0-.28-.14-.42,0-.42.28,0,0-1.12,0-1.26s.14-.28.14-.42c.14-.28.28-.42.28-.7v-.42c0-.14,0-.28.14-.28,0-.14,0-.28.14-.42,0-.14.14-.28.14-.42.14-.28.14-.56.28-.84,0-.42.14-.7.28-.98.14-.28.14-.56.28-.84.14-.28.56-.42.56-.84s.28-.56.28-.98c0-.28,0-.84.42-.98,0-.14.14-.42.28-.42v-.42c.28,0,.14-.28.28-.56,0-.14.28-.42.42-.14.14-.14.14-.28.28-.42h0c0-.14,0-.42.14-.56-.28-.14,0-.28.14-.42.14-.14.14-.28.28-.42h0c.28-.28.42-.14.42-.56h.14c0-.28.14-.56.28-.84.14-.14.42-.7.56-.56v-.14h0v-.14c.14-.14.28-.14.42-.14.14-.14.14-.28.28-.28,0-.14.28,0,.28-.28.14,0,.28-.42.28-.42,0-.14,0-.28.14-.28,0-.14.14-.14.14-.28.14,0,.28,0,.28-.14-.14,0,0-.14,0-.28.14,0,0-.14,0-.28,0,0,.14-.14.28-.14.14-.14.28-.28.42-.42-.14,0,0-.42,0-.56s.14-.14.14-.28v-.28c0-.14.28-.56.28-.84,0-.14,0-.28-.14-.42,0-.14.14-.14.14-.14,0-.14,0-.56.14-.56.14-.28.14-.56,0-.84,0-.14-.14-.14-.14-.28s0-.28-.14-.42h0c-.14,0,0-.14,0-.28s-.14-.28-.14-.28c-.14,0-.14-.14-.28-.28q-.14-.14-.14-.28c-.14-.14-.28-.14-.42-.14s-.28,0-.42-.14c-.14,0-.28-.14-.28-.14h-.28c-.14,0-.28-.14-.42-.14h-.42c-.14,0-.28,0-.42.14h-.42c-.14,0-.28,0-.42.14s-.14.14-.28.14c-.28,0-.42.14-.7.14s-.42.14-.7.28c-.14,0-.28.14-.28.14-.14,0-.14.14-.28.14s-.28,0-.42.14c-.14,0-.28.14-.42.14s-.42.14-.56.28c0,.14-.14.14-.28.14,0,.14-.14.14-.28.28-.14,0-.14.14-.28.28l-.14.14s-.14,0-.14.14c0,0-.14.42-.14.14-.14,0-.14.14-.14.14q-.14,0-.28.14c-.14,0-.42.14-.42.28-.42.14-.84.56-1.12.84-.42.28-.84.56-1.12.98-.14.14-.28.28-.42.42q-.14.14-.28.28c0,.14-.14.28-.14.28h-.14l-.14.14q-.14.14-.28.28c-.14.14-.28.28-.42.42q0,.14-.14.28s-.14,0-.14.14c-.14.14-.14.28-.28.42-.14.28-.42.42-.56.7,0,0-.28.42-.42.56s-.14.14-.14.28c-.14,0,0,.14-.14.14l-.14.14c-.14.14-.14.28-.28.42-.14.14-.28.28-.28.42s-.14.28-.14.42h-.14c-.14,0,0,.28-.14.28,0,.14-.14.14-.28.28,0,.14-.14.14-.14.28v.14l-.14.14v.14l-.14.14c0,.14-.14.14-.14.28s-.14.14-.14.28-.14.28-.14.28c0,.14,0,.28-.14.42,0,.14-.14.14-.14.28-.14.28-.14.42-.28.7,0,.14,0,.28-.14.28,0,.14-.14.14-.14.28v.42c0,.14-.14.14-.14.28,0,0,0,.28-.14.28,0,.14-.14.28-.14.42-.14.14-.14.42-.14.56,0,.28-.14.42-.14.7s-.14.56-.28.7c-.14.28-.14.42-.14.7s-.14.42-.14.7c-.14.42-.14.98-.28,1.4,0,.28-.14.42-.14.7,0,.14-.14.28-.14.28,0,.14.14.14,0,.28,0,.28-.14.56-.14.7v.98c0,.14-.14.28-.28.56v.56s-.14,0,0,.14c.14,0,0,.28,0,.28,0,0-.14,0-.14.14v.98c0,.56,0,1.12-.14,1.68-.14.56,0,1.12,0,1.68v.56c0,.28-.14.28-.14.42s-.14.28-.14.56c-.14.14-.14.28-.14.42v1.12c.28.14-.14.84,0,.98,0,.14.14.28.28.42.14.14.14.28.14.56v4.61c0,.42.14.7,0,1.12-.14.7,0,1.4,0,2.09v.7h-.14c.14.14.14.42.14.56,0,.28.14.42.14.7v.7c.14.42.14.84.28,1.4v.42c0,.14.14.28.14.28,0,.28.14.42.14.7,0,.14.42.42.28.7.14.14.14.28.14.42s.14.28.28.42c.14.14,0,.28.14.42.14.14.28.14.28.28.14.28.42.56.7.84s.56.42.7.56c0,0,0,.14.14.28,0,0,0-.14.14-.14.28.28.84.56,1.12.7s.42.14.7.28c.14,0,.14.14.28.28,0,.14,0,.28.28.28v-.14q.28,0,.42.14c.14.14.28.14.42.14h.56c.14,0,.14.14.42.14.14,0,.28,0,.42.14h1.26v.14h.14v-.14c.28-.14.56.14.84,0h.56c.14,0,.28,0,.42-.14.28-.14.7,0,1.12-.14.28-.14.7-.14.98-.28,0-.14.28,0,.42-.14h.14v-.14c.14-.14.14,0,.28,0,0,0,0,.14.14.14h.14c.14,0,.28.14.28.14.14,0,.28-.14.28-.14.14,0,.56.28.56,0-.14,0-.56.14-.42-.14,0-.14.42-.14.56-.14s.42-.14.56-.14.42.28.42,0c-.14,0-.14-.14-.14-.14h.28c.14,0,0-.14.14-.14.14-.14.56,0,.7,0,.28,0,.42-.14.56-.14.28,0,.56,0,.56-.28h.28c.14,0,0-.14.14-.14.14-.14.28,0,.42-.14.14,0,0-.14.14-.14,0,0,.14,0,.14-.14.14-.14.14-.28.28-.28.14-.14.42,0,.56-.14.14-.14,0-.28.14-.42.14-.14.28-.14.42-.28s.28-.14.42-.28.28-.14.42-.14c0-.14.14-.28.28-.42.14-.14.28-.14.42-.14h.14c.42,0,.28.7.28.84,0,.42,0,.7.14.98v.42c-.14.14-.14.28,0,.42,0,.14.14,0,.14.14v.84c0,.14.14.28.14.28,0,.14-.14.14-.14.14v.42c.14.14,0,.14.14.14v.56c0,.14.14,0,0,.14q0,.14-.14.14v.56c.14.14,0,.28,0,.28,0,.14.14.14,0,.28v.14h0v.14c-.14.14-.42.14-.56.28-.14.14-.28.14-.42.28-.14,0-.28.14-.42.28s-.28.14-.42.28c-.28.14-.42.42-.7.56s-.56.28-.7.56c-.14.14-.42.28-.56.42-.14.14-.56.28-.56.42q-.14,0-.14.14h0c-.7.28-1.26.84-1.95,1.26-.28.14-.42.42-.7.56-.14.14-.28.14-.42.28s-.28.14-.42.28c0,0,0,.14-.14.14l-.14.14c-.14.14-.28.14-.42.28-.42.28-.98.7-1.4,1.12-.56.42-.98.98-1.54,1.26-.7.28-1.12.98-1.82,1.26,0,.14-.14.14-.28.28q-.14.14-.28.28c-.28.14-.42.28-.7.42-.14,0-.28.14-.28.28-.14.14-.14.28-.28.28s-.28,0-.42.14-.14.14-.28.28c-.14,0-.14.14-.28.28q-.14.14-.42.14c0,.28-.28.28-.42.42-.14.14-.28.28-.42.42-.14.14-.42.14-.56.28-.14.14-.14.28-.42.28,0,.14-.28.14-.28.28-.14.14-.14.28-.28.28-.14.14-.28.14-.42.14-.14.14-.28.14-.28.28q-.14.14-.42.28c-.14,0-.28.14-.42.28-.28.14-.42.42-.7.56-.28.28-.7.56-.98.7s-.56.42-.98.7v.14c-.14.14-.14,0-.28.14,0,0-.14.14-.14.28-.14,0-.14.14-.28.14q-.14.14-.28.28c-.14.14-.42.14-.56.28-.14.14-.42.28-.56.42,0,.14-.14.14-.28.28q-.14.14-.28.28c-.14.14-.28.14-.42.14,0,0,0,.14-.14.14h-.14c-.14.14-.42.28-.56.42q-.14.14-.28.28c-.14,0-.28.14-.28.28-.28,0-.56.28-.7.42q-.14.14-.28.14c-.14,0-.28.14-.28.14-.14,0-.14.28-.28.28v-.14c-.14,0-.14.14-.28.28-.14.14-.28.14-.28.14-.14.14-.42.28-.56.42-.28.14-.42.28-.56.42-.14.14-.28.14-.42.14q-.14.14-.28.28v.14c-.28.14-.42.42-.7.56-.14.14-.28.14-.42.28s-.14.14-.28.42c-.14.14-.28.28-.28.28-.14.14-.14.28-.28.28-.14.14-.28.14-.42.28s-.14.28-.28.42c-.28.14-.56.28-.7.42-.14.14-.42.42-.56.56-.14.14-.42.28-.7.42-.28.14-.42.28-.7.56-.28.14-.28.42-.56.56s-.42.42-.7.56c-.56.28-.98.84-1.54,1.26-.56.42-.98.84-1.4,1.26-.28.28-.56.42-.84.7-.14.14-.14.28-.28.28-.14.14-.28.14-.42.28-.42.42-.84.7-1.26,1.12-.42.28-.84.56-1.12.98-.28.28-.56.56-.84.56.14.42-.7.42-.7.7-.14,0-.14-.14-.28-.14,0,.42-.7.7-.98.84-.14.14-.42.28-.42.42-.14.28-.42.28-.7.28,0,.14-.14.28-.28.42q-.14.14-.28.28c-.14.28-.42.42-.7.7-.56.42-.98.84-1.54,1.26-.14.14-.28.14-.42.28s-.14.42-.28.56c-.14-.14-.28.14-.28.14-.14.14-.28.14-.42.28s-.42.42-.7.56c-.42.42-.98.84-1.4,1.26-.7.42-1.12,1.12-1.68,1.54-.14,0-.28.14-.42.28s-.14.28-.28.42c-.14.14-.28.14-.42.28s-.28.14-.28.28c-.28.14-.56.42-.84.7-.14,0-.14.14-.14.28-.28.14-.56.42-.84.56-.14.14-.7.42-.7.56-.28.14-.56.42-.84.7-.14.14-.28.14-.42.28s-.14.28-.28.28c-.28.28-.56.42-.7.56-.28.14-.42.42-.7.7-.56.42-.98.84-1.4,1.26-.28.28-.42.42-.56.56-.14.14-.42.28-.56.42-.14.14-.42.28-.42.42v.28c0,.14-.14,0-.28.14-.28.14-.56.42-.7.56s-.14.14-.28.28c-.14.14-.28.14-.28.28-.14.14-.28.28-.42.42-.14.14-.28.14-.42.28s-.14.28-.28.28l-.14.14-.14.14c-.28.14-.42.42-.7.56-.42.42-.98.98-1.4,1.4-.14.28-.42.42-.7.56-.28.28-.42.42-.7.7-.42.42-.98.7-1.26,1.26-.42.42-.98.84-1.4,1.26-.14.14-.28.14-.28.28-.14.14-.14.28-.28.42-.14.14-.42.42-.7.56s-.42.42-.56.56c-.14.14-.42.42-.7.56-.42.42-.84.7-1.26,1.12-.42.42-.84.84-1.26,1.26-.56.42-.98.98-1.54,1.54-.28.28-.56.56-.7.7-.14.28-.42.42-.56.7-.28.56-.84.98-1.26,1.54-.28.42-.56.84-.98,1.26-.14.28-.42.56-.56.7-.14.28-.28.56-.42.7l-.42.84c.14,0,0,.28,0,.42.14.14-.14.7-.14.98,0,.42.28.56.28.98v.56c0,.14.14.28.14.42.14.14.14.42.28.7,0,.14.14.28.14.42.14.28.28.56.28.84,0,.14.14.14.28.28.14.14.14.42.28.56.14.14.28.28.42.28.28.14.28.42.56.56.42.14.84.56,1.4.7.14,0,.28,0,.42.14.14,0,.14.14.28.14s.28,0,.42.14c.14,0,.28.14.42.14.28,0,.56.14.84.14h.14q.14,0,.14.14c.14,0,.28-.14.42,0,.14,0,.28.14.42.14s.28-.14.42-.14.28.14.42.14.28-.14.42-.14h.84c.14,0,.14-.14.28-.28l.14-.14s0-.14.14-.14h.28q.14,0,.28-.14.14-.14.28-.14c.14,0,.14-.14.28-.28,0-.28.28-.28.42-.28q.14-.14.28-.28c.14-.14.28-.14.42-.28s.14-.14.14-.28c.14-.14.28-.42.42-.56s.14-.14.14-.28q.14-.14.28-.14c.14,0,.14-.14.14-.28s.14-.14.28-.28c.28-.14.42-.42.56-.56.28-.28.56-.56.98-.84,0,0,.14,0,.14-.14,0,0,0-.14.14-.14.14-.14.28-.42.42-.56s.28-.28.42-.42c.14-.14.28-.42.56-.42.42-.14.42-.28.56-.56q.14-.14.28-.14c0-.14.14-.28.28-.28q.14-.14.14-.28c0-.14.14-.14.28-.28q.14-.14.28-.28c.14-.14.14-.28.14-.28.14-.14.28,0,.28-.14.14,0,.14-.14.28-.28.14-.14.28-.14.42-.28s0-.28.14-.28c0-.14.14-.14.28-.14.14-.14.14-.28.28-.28.14-.14.42-.42.42-.56.14-.14.14-.28.28-.42.14-.14.14-.42.28-.42s.14-.14.28-.14c0,0,.14,0,.14-.14h.14v-.14l.14-.14h.14c.14-.14.14-.28.14-.28q.14-.14.28-.14.14-.14.28-.28c.14-.14.42-.28.56-.56.14-.14.42-.28.42-.42s.42-.42.42-.56c.14,0,.14-.14.28-.28,0-.14.14-.28.14-.28.14-.14.42-.28.56-.42.14-.14.28-.42.42-.56s.28-.28.42-.42q.14-.14.14-.28.14-.14.28-.14c.14-.14.14-.42.42-.56h.14q.14-.14.28-.28.14-.14.28-.28c.14-.14.28-.42.56-.56s.14-.42.42-.56c.14,0,.14-.14.28-.14,0-.14.14-.28.14-.28.14-.14.28-.42.42-.56s.42-.28.7-.42c.42-.28.56-.84.84-1.26.28-.42.56-.84.98-.98.14,0,.14-.14.28-.14.14-.14.28-.28.42-.42.14-.14.14-.28.28-.42.14-.14.28-.14.42-.28s.14-.42.42-.56c.14,0,.28-.14.42-.28v-.14q0-.14.14-.14.14-.14.28-.14c.14-.14.28-.28.28-.28.14-.14.14-.28.28-.28.14-.14.28-.14.42-.28.28-.14.42-.42.56-.7.28-.28.56-.28.98-.84.14-.14.28-.28.56-.42.14-.14.28-.28.56-.28.14-.14.28-.28.42-.42,0-.14.14-.14.28-.14q.14-.14.28-.28c.14-.14.28-.42.42-.56q.14,0,.28-.14.14-.14.28-.28c.14-.14.28-.28.56-.42.14-.14.28-.14.28-.28s0-.14.14-.28.28-.42.42-.56.42-.28.42-.56c.14-.14,0-.14.28-.28.14,0,.14-.14.28-.14.14-.14.28-.28.42-.56.14-.14.28-.14.28-.28.14-.14.14-.28.14-.28.14-.14.42-.28.56-.42q.14-.14.28-.28c.14-.14.28,0,.42-.14s.14-.14.14-.28.14-.14.28-.28c.14,0,.28-.14.42-.28,0-.14.14-.14.14-.28.14-.14.42-.28.56-.42q.14-.14.28-.28.14-.14.28-.14c.14-.14.28-.14.42-.28s.14-.28.28-.28h0c.14-.14.28-.14.42-.42.28-.28.7-.42.98-.84.14-.14.28-.42.56-.42.28-.14.42-.28.56-.56q.14-.14.28-.28c.14-.14.28-.14.28-.14.14-.14.42-.42.56-.56.28-.14.42-.28.7-.56.42-.28.84-.7,1.12-.98.14-.14.14-.28.28-.28.28-.14.56-.28.7-.42.28-.28.42-.56.7-.7.42-.28.7-.7,1.12-.84.28-.14.42-.42.56-.56h.14s0-.14.14-.14c.14-.14.28-.14.42-.28.28-.14.42-.42.56-.56.14-.14.42-.28.56-.42.28-.14.42-.42.7-.56.14-.14.28-.14.42-.28s.28-.28.42-.42q.14-.14.28-.28s0-.14.14-.14c0,0,.14,0,.14-.14q.14-.14.28-.28c.28-.14.42-.42.7-.56.14,0,.28-.14.28-.28,0,0,0-.14.14-.14h.28s.14-.14.28-.28c.14-.14.28-.28.42-.28.14-.14.42-.28.56-.56.14-.14.42-.42.56-.56q.14-.14.28-.28.14-.14.28-.14c.14,0,.14-.14.28-.28.14,0,.14-.14.28-.28l.14-.14h.28c.14-.14,0-.28.14-.28,0,0,.14,0,.14-.14l.14-.14q.14-.14.28-.28c.28-.14.42-.42.7-.56.42-.28.84-.7,1.26-.98q.14-.14.28-.14c.14,0,.14-.14.28-.28.14-.14.28-.28.56-.42.14-.14.28-.28.56-.42.14-.14.42-.14.56-.42h0q.14-.14.28-.28c.14,0,.28,0,.28-.14s0-.14.14-.14h0c.14,0,.14-.28.28-.28.28-.14.42-.42.7-.56,0,0,0-.14.14-.14h.14c.14,0,.14-.14.28-.14q.14-.14.28-.14c.14-.14.42-.28.56-.42.14-.14.42-.28.56-.42.14,0,.14-.14.28-.28h.14c.14,0,.14-.14.14-.14q.14-.14.28-.28s0-.14.14-.14h.14c0-.14.14-.14.28-.28q.14-.14.28-.14.14-.14.14-.28c0-.14.14-.14.28-.14s.14-.14.28-.14q.14-.14.14-.28c.14-.14.28-.14.42-.14.14-.14.28-.14.42-.28s.28-.14.42-.28.28-.28.42-.42c.14-.14.28-.14.42-.28,0,0,.14-.56.28-.28.14,0,.42-.28.56-.28.14-.14.42-.28.56-.42.14-.28.42-.28.7-.56q.14-.14.28-.28.14-.14.28-.14c.14,0,.14-.14.28-.28q.14-.14.28-.28c.28-.14.42-.28.56-.42.14-.14.42-.28.56-.42.14-.14.42-.28.56-.42.14,0,.28-.14.42-.28s.28-.28.56-.28c.28-.14.42-.28.7-.42.14-.14.42-.28.56-.42.14,0,.28-.14.28-.14q.14-.14.28-.14c.14-.14.28-.28.56-.28.14-.14.28-.14.56-.28.14,0,.28-.14.28-.14h.14s0-.14.14-.14c.14-.14.42-.14.56-.28h0v.42c0,.14.14.14,0,.42v1.12c0,.28.14.42,0,.7,0,.14-.14.28-.14.28,0,.14.14.28.14.28,0,.56-.14,1.12,0,1.68v.84c0,.28.14.7,0,.84h-.14v.98c0,.28.14.56,0,.7v8.52c0,.28.14.56,0,.84h0c-.14.42,0,.98,0,1.4v.42c0,.14-.14.14-.14.42,0,.14,0,.28.14.42v.42c0,.14.14.28,0,.42l-.14.14v.98c0,.14,0,.28.14.28v.84c0,.14-.14.28,0,.42,0,.14,0,.28.14.42v2.51c0,.28-.14.42,0,.7v.7h0c-.14,0-.14.14-.14.14.14,0,0,.28.14.42v.28c0,.14-.14.14-.14.28,0,0,.14,0,.14.14v1.12c-.14,0-.28-.14-.28,0v.42c0,.14.14.14.14.28s0,.28.14.42v.42c0,.14-.14.14-.14.28,0,.28.14.56.14.84s-.14.42-.14.56v.7c0,.28-.14.42-.14.7v1.26c0,.14,0,.28.14.42.14.42.14.84.14,1.26v.7c0,.14-.14.28-.14.56v3.35c0,.14-.14.14-.14.28s0,.14.14.42v.42c0,.28-.14.56-.14.84,0,.14-.14.42,0,.56v.42c0,.28-.14.56-.14.84v2.93c0,.14.14.14.14.28,0,.28,0,.42-.14.7v.42c0,.14-.14.14-.14.28v.84c0,.28,0,.56-.14.84v2.51c0,.14-.14.28-.14.28.14.14,0,.7,0,.84v1.26c0,.14-.14.28-.14.42s.14.28,0,.42v.28c0,.42-.14.7-.14,1.12v1.26c0,.14.14.28,0,.42,0,.14-.14.28-.14.42v1.12c.14,0,.14.28.14.42l-.14.14c0,.14.14.14.14.28v1.12c-.14,0,0,.7.14.84v.98s0,.14.14.14v1.26s.14,0,.14.14v.14c0,.14.14.28.14.28,0,.14.14.56.14.7h.14v.42c0,.14,0,.28.14.28.14.28.14.56.28.7,0,.14.14.28.14.42v.14l.14.14c.14.28.14.42.28.7.14.14.14.28.28.42.14.14.28.14.28.28.14.14.14.28.28.28.28.14.42.42.7.56.14.14.42.28.56.42.28.14.42.28.7.28.56.14,1.12.42,1.68.56.28,0,.56.14.84.14h1.4c.56,0,.98,0,1.4-.14.14,0,.28-.14.42-.14h.42c.14,0,.14-.14.28-.28.14,0,.28,0,.42-.14.56-.42,1.26-.84,1.82-1.26q.14-.14.28-.28.14-.14.28-.28c.14-.28.28-.42.42-.7q.14-.14.14-.28c0-.14,0-.28.14-.42.14-.14.14-.28.28-.56,0-.14.14-.14.14-.28,0,0,0-.14.14-.14v-.14c.14-.14.28,0,.28,0v-.14h.14c.14,0,.14-.14.14-.14.14,0,.28,0,.28-.14-.14-.14-.42-.14-.7-.28,0,0-.14,0-.14-.14h-.14v-.42c0-.14.14-.14.14-.28,0,0,0-.28.14-.28,0,0,.56.14.42-.14-.14,0-.14-.14-.14-.14q-.14,0-.14-.14h.28s.14-.14,0-.28c0-.14-.28-.28.14-.42,0,0,.28-.28.42-.28.14-.14.14-.28,0-.42,0,.14-.14.28-.14.28-.14,0,0-.14,0-.28s-.28,0-.28,0c-.14,0-.14-.14-.28-.14v.14c-.14,0-.28,0-.28-.14s.14-.14.14-.14c0,0-.28-.14-.14-.28,0-.14.28-.28.14-.42,0,.14-.14.28-.28.14l.14-.14h0c-.14.14-.14-.14-.14-.14-.14-.14-.28,0-.42-.14,0,0,.14,0,.14-.14-.14,0-.14-.14-.14-.28s-.14-.14,0-.28h.14s0-.14.14-.14.28.14.28,0c-.28,0,0-.28-.14-.28l-.14-.14h-.14c-.14,0-.28.14-.42,0v-.14l-.14-.14h.14v-.14c.28,0,.14.14.14.14,0,.14.14.14.14.14.14,0,.28.14.42,0v-.28c.14,0,.42,0,.28-.14,0-.14-.28-.14-.14-.28,0,0-.14,0-.14-.14.14-.14.14,0,.28,0s.14-.14.14-.14c-.28,0-.14-.28.14-.28s0,.28,0,.42c.14,0,.28-.28.28-.42q-.14-.14-.28-.14-.14,0-.28-.14c-.14,0-.28-.28-.28-.42-.28-.28-.28.28-.56,0,.14-.14.28-.42.56-.28,0,0,0,.28.14.28s.28-.14.28-.28c-.14,0-.14-.14-.14-.28-.14,0-.28,0-.14-.14-.14,0-.14-.14-.28-.14-.14-.14-.14.14-.14.28-.14-.14-.14-.42,0-.56,0-.14.14,0,0-.14,0-.14-.14-.14-.14-.14-.14.28.28.56-.14.7-.14,0-.56-.14-.7-.28,0-.14-.14-.28-.14-.42s.14-.14,0-.28l-.14-.14v-.42c0-.14.14,0,.14-.14l.14-.14c-.14-.14-.14.14-.14-.14h.14v-.14q-.14-.14,0-.14c.14-.14.42,0,.56,0s.28-.14.42-.28h-.14s-.28-.28-.42-.28c-.28,0-.14.28-.28.28,0,0-.14,0-.14-.14-.42-.14,0-.28.14-.42h.56c.14,0,.28,0,.42-.14-.14-.14-.28-.14-.28-.28s.14-.14.28-.28l.14-.14v-.14c0-.14.28-.14.28-.28l-.28-.14s.28,0,.14-.14l-.14.14c-.14,0,0-.14,0-.14-.14-.14-.14,0-.28,0v-.28h-.14c0-.14.14-.14.14-.28.14-.14-.14,0-.14-.14v-.14h-.14c-.14,0-.14-.14,0-.28v-.28q0-.14-.14-.28h-.14v-.14s-.14,0-.14-.14c0,0,0-.14.14-.14,0,0,0,.14.14.14v-.14l-.14-.14c-.14,0,0-.14,0-.28l.14-.14v-.28s-.14,0-.14-.14c0,0,0-.14-.14-.14h-.14v-.28s0-.28-.14-.28c0,0-.14,0-.14.14,0,0-.14,0-.14.14s.14.14,0,.28h-.14s0-.14-.14-.14-.14-.14-.14-.14h-.14v-.28h0v-.14c0-.14-.14,0-.28-.14-.14-.14,0-.14.14-.14v-.14s.14,0,.14-.14v-.28c0-.14.14-.14.14-.28v-.42c-.14-.14-.28-.14-.28-.28,0-.42.56-.42.56,0-.28,0,0,.42,0,.14v-.14s.14,0,.14-.14v-.84s.14-.14.14-.28h-.42c-.14-.28.42-.28.28-.42-.14-.14-.7-.14-.42-.42q.14-.14.28-.28v-.14c-.14-.14-.14,0-.14,0-.14,0-.28,0-.28-.14-.14-.14,0-.28,0-.28v-.28l.14-.14h.28c.28-.14-.14-.28-.42-.28-.14,0-.14.14-.28,0-.14-.14,0-.28.14-.28.42-.14-.14-.56.14-.7h.14v-.14h.14q.14,0,.14-.14l.14-.14c0-.28-.42-.14-.56,0h-.14q.14-.14,0-.42-.14.14-.42,0c0-.14.14-.28.14-.42-.14-.14-.42-.28-.42-.42s.28-.28.28-.42c.14-.14.14-.56.14-.7q-.14-.14-.14-.28v-.14l-.14-.14c-.14-.42.28-.28.56-.28.14,0,.28-.14.28-.28s-.14-.14-.28-.14h-.14c-.14-.14,0-.14,0-.14v-.56s.14,0,.14-.14-.14-.28-.28-.14c-.14.14,0,.14,0,.28s-.14.28-.14.28c-.14,0-.14-.14-.28,0-.14-.14,0-.14,0-.14,0-.14-.14-.14-.14-.14,0-.28.28-.14.28-.28s-.14-.28-.28-.42c-.14-.14.14-.28.14-.42,0-.28.7,0,.84-.14s0-.28-.14-.28c-.14-.14-.28,0-.28-.28,0-.14.14-.28,0-.42-.14-.14-.28,0-.42-.14,0-.14.14-.28,0-.28v-.14c0-.14-.14,0-.14-.14-.28,0,0-.14.14-.28v-.14s.14,0,.14-.14,0-.28.14-.42c.14-.14.28,0,.42,0,.28,0,.28-.28.28-.42-.14-.14-.14.28-.14.28,0,.14-.28.14-.28,0,0-.28.14-.14.14-.28v-.42s.14,0,.14-.14c-.14-.14-.14.14-.14.14,0,0-.14.14-.28.14s0-.14,0-.28-.14-.14-.28-.14c0-.14.14,0,.28-.14,0-.14-.14-.28,0-.42,0-.14.14-.14.14-.14q0-.14-.14,0v.14l-.14.14h-.14v-.42l.14-.14c0-.14-.14-.14-.28-.14v-.14l-.14-.14c-.14-.14,0-.28,0-.28l.14-.14.14-.14q.14-.14.28-.28c0-.14,0-.28-.14-.28s-.14,0-.14-.14,0-.14.14-.14h.28v-.14h-.42c-.14,0-.28.14-.28-.14,0-.14.28,0,.42,0h.28c.14,0,0,0,.14-.14.14,0,.28-.14.28-.14v-.14s-.14,0-.14-.14.14-.28.14-.28h0v-.14s-.14,0-.14-.14c-.14,0-.28-.14-.14-.28,0-.14.28,0,.42,0s.14-.14.14-.28q-.14-.14-.28-.14l-.14-.14v-.14c0-.14-.14-.14-.14-.28-.14-.14,0-.14.14-.14,0,0,.14,0,.14-.14.14,0,.28,0,.42.14l.14.14v-.7l-.14-.14c-.14-.14-.28.28-.42.14,0-.14.28,0,.14-.28,0-.14-.28-.14-.28,0v.14c-.14,0,0-.14,0-.14,0,0-.14,0-.14-.14l.14-.14c-.14-.14.14-.14.28-.14,0,0,.14-.14,0-.14,0-.14-.14,0-.14,0-.14,0,0-.28-.14-.42,0,0-.14,0-.14-.14s0-.14.14-.14c0,0,.14,0,.14-.14v-.42l.14-.14c.14-.14.28-.14.28-.14.14,0,.28,0,.42-.14v-.14h-.14q-.14,0-.14-.14s0-.14-.14-.14c0-.28.14-.14.28-.28.14,0,0-.14,0-.14h-.14s-.14,0-.14-.14c0,0,0-.14.14-.14s.14-.14.14-.28c-.14,0-.14.14-.14.14h-.14s0-.14.14-.14v-.28c0-.14.14-.28.14-.28,0,0,.14-.14,0-.14l-.14.14s-.14.42-.28.28c-.14-.14,0-.28.14-.42,0-.14.14-.28.14-.42s.14-.28,0-.28h-.14s0-.14.14-.14v-.14h-.14l-.14-.14q0-.14.14-.14c.14,0,.14-.14.14-.28v-1.12h-.14l-.14-.14c-.14,0-.14-.14-.14-.28v-.28h.14l.14-.14c0-.14,0-.28-.14-.28h-.14s-.14,0-.14.14h-.14v-.14c0-.14.14,0,.14-.14v-.28h.14c.14,0,.14-.28.14-.42v-.42c0-.14.14-.28,0-.28h-.14v-.14h.14v-1.96h.14v-.14h0v-.14q0-.14-.14-.14h-.14.14l.14-.14v-.14h0v-1.26h0v-.42s0-.14.14-.14h.14c0-.14-.14,0-.14,0v-.14h-.14v-.7h-.14v-.28c0-.14.14-.14,0-.28h-.14s-.14,0-.14.14h-.14s-.14,0-.14-.14h.14v-.28h.14v-.14q0-.14-.14-.14c0-.14.14-.14.28-.14h.28v-.14l-.14-.14h-.14v-.42h.14v-.28h-.14l-.14-.14s0-.14-.14-.14v.14s-.28,0-.14-.14c0,0,.14,0,.14-.14v-.14q0-.14.14-.28c0-.14.14-.14.14-.28v-.14h-.14c-.14,0-.14-.14-.14-.14v-2.65s.14-.14,0-.14l-.14-.14v-.28c0-.14.14-.14.14-.14v-.28h-.14v-.28l.14-.14s0-.14.14-.28q0-.14.14-.14s.14-.14,0-.28c0,0-.14,0-.14-.14v-.28c0-.14.14-.14.14-.14,0-.14-.28-.14-.28-.14-.14-.14,0-.28,0-.42s0-.14.14-.14.14,0,.14-.14v-.56c0-.14.14-.28,0-.42,0-.14-.14-.14-.14-.14,0,0,0-.14-.14-.14q-.14-.14-.14-.42v-.14l-.14-.14c0-.14,0-.28.14-.42h.28v.28c.14.14.28,0,.28-.14s-.14-.14-.14-.28.14-.14.14-.14v-.14h0c-.14,0-.28,0-.28-.14s.14-.28,0-.42c0,0-.14,0-.14-.14v-.14s.14,0,.14-.14v-.28l.14-.14-.14-.14.14-.14v-.28q0-.14.14-.14c0-.14.14-.14.14-.28v-.84c0-.14-.14,0-.14,0v-.14q0-.14-.14-.14h-.14s-.14,0-.14-.14,0-.14.14-.14.14-.28.14-.42,0-.14.14-.14v-.56c0-.14.14-.14.14-.28,0,0,0-.14-.14-.14s0,.14-.14.14c0,0-.42-.14-.28-.14h0v-.28l.14-.14q.14,0,.14-.14l.14-.14s0-.14.14-.14c0-.14.14-.14.14-.14v-.28s-.14,0-.14.14c-.14,0-.14-.14-.14-.28v-.14q0-.14.14-.14v-.42c0-.14-.14-.14-.14-.14v-.28c0-.14.14-.28.14-.28v-.28s-.14,0-.14-.14v-.14h.28v-.28c-.14,0-.28,0-.28-.14s.14-.14.14-.28v-.28q0-.14.14-.28s.14-.14,0-.28c0,0-.14,0-.14-.14v-.14h0v-.14c0-.14.14-.14.28-.28.14-.14.28-.28.28-.42h0c0-.14.14-.14.14-.28q.14.14.28.14s0-.14.14-.14.28,0,.28-.14c0,0,0-.14.14-.28s.42,0,.56-.14l.14-.14s.14,0,.14-.14q.14-.14.14-.28c0-.14.14-.14.14-.28h0s.14,0,.14-.14l.14-.14s.14,0,.14-.14l.14-.14h.14c-.14-.14,0-.28.14-.28h.14v-.14h0v-.14s.14,0,.14-.14h.28v-.14h.14s.14-.14.28-.14h0l.14-.14c0-.14.14-.14.14-.14.14-.14.28-.28.42-.28,0,.14.14,0,.14,0v-.14c0-.14.14-.14.28-.28h.14s0-.14.14-.14l.14-.14s.14,0,.14-.14l.14-.14.14-.14h.14c.14-.14.56-.7.7-.42.14-.14.28-.28.56-.42,0-.14.14-.14.28-.14s.28-.14.28-.14c.28-.14.42-.28.56-.42.14,0,.14-.14.28-.28q.14-.14.28-.14c.14-.14.42-.28.56-.42.28-.28.42-.28.7-.42q.14-.14.42-.14c.14,0,.28,0,.42-.14v-.14s0-.14.14-.14.28-.14.28-.14c.14-.14.14,0,.28,0s.42,0,.42-.14l-.14-.14c0-.14.14-.14.28-.14s.14-.14.28-.14.14-.14.28-.14c0,0,.14,0,.14-.14l.14-.14c.14,0,.28,0,.28-.14q.14-.14.28-.28c.14-.14.56-.14.7-.28v-.14c.28-.14.42-.28.7-.42,0,0,.14,0,.14-.14,0,0,0-.14.14-.14.14-.14.28,0,.28-.28.14,0,.42-.42.56-.28.14-.28.28-.28.56-.42.14-.14.42-.28.56-.42.14,0,.14-.14.28-.14s.14-.14.28-.14c.14-.14.42-.28.56-.42.28-.14.42-.28.7-.42.14-.14.42-.14.56-.28.14,0,.14-.14.28-.28q.14-.14.28-.14h.14s0-.14.14-.14h.28l.14-.14q.14-.14.28-.28c.28-.14.42-.28.7-.42.42-.28.98-.56,1.4-.84.14-.14.28-.28.56-.42.28-.14.42-.28.7-.42.42-.28.98-.56,1.4-.84.28-.14.56-.28.7-.42.28-.14.42-.28.7-.42.28-.14.42-.28.7-.42.28-.14.42-.14.7-.42.14-.14.42-.28.56-.42.28-.14.42-.14.7-.28.14,0,.14-.14.28-.28.14,0,.28,0,.28-.14q.14-.14.28-.28c.14-.14.28-.14.42-.14s.14-.14.28-.14c.14-.14.28-.14.28-.14.28-.14.42-.28.56-.42.14,0,.28-.14.28-.28.14-.14.28-.14.42-.14s.14-.14.28-.14h.14s0-.14.14-.14c.14-.14.28,0,.42-.14.14,0,.14-.14.28-.14.14-.14.28-.28.56-.42.28,0,.56-.28.7-.42q.14-.14.28-.28c.14,0,.28-.14.42-.14.28-.14.42-.28.7-.42.42-.28.84-.56,1.26-.7.14,0,.14-.14.28-.14.14-.14.56-.28.56-.28.14,0,.14-.14.28-.14.28-.14.42-.28.7-.42.14-.14.42-.28.7-.42q.14,0,.28-.14c.14,0,.14-.14.28-.14s.56-.14.56-.28q.14,0,.28-.14c.14,0,.14-.14.14-.14.14,0,.28-.28.42-.28h.28l.28-.14.14-.14c.14,0,.14-.14.28-.14q.14-.14.28-.28c.14,0,.28-.14.42-.14.28-.14.42-.28.7-.42.14,0,.14-.14.28-.28.14-.14.56-.14.7-.28s.14-.14.28-.14c.28-.14.56-.28.84-.42.14-.14.28-.14.42-.14,0-.14.14-.14.28-.28.14,0,.42-.14.56-.14.14-.14.42-.28.56-.42.14,0,.14-.14.28-.14s.14,0,.28-.14c.14-.14.42-.28.56-.28s.28-.14.28-.14c.14-.14.14-.28.14-.28h.42c.14,0,0-.14.14-.14h.14c.28-.14.42-.28.7-.42.28,0,.42-.28.7-.28.14,0,.14-.14.28-.14h.28l.14-.14c.28-.14.56-.28.84-.42.14-.14.56-.28.7-.42.28-.14.42-.14.7-.28s.56-.14.7-.28c.28-.28.56-.42.98-.42.14-.14.28-.28.56-.28q.14,0,.28-.14s0-.14.14-.14c.14-.14.28-.14.42-.14,0-.14.14-.14.28-.14s.7-.28.84-.42c.14,0,.14-.14.28-.14.14-.14.14,0,.14-.28h.28v-.14h.14c.14-.14.42-.28.56-.28s.14,0,.28-.14c.14,0,.14-.14.28-.14.14-.14.42-.28.56-.28h0c.14,0,.14-.14.28-.14.14-.14.28,0,.42-.14.14,0,.56-.28.56-.42.14-.14.28-.14.28-.28.14-.14.42-.14.56-.28.14-.14.28-.28.42-.28s.28-.14.42-.14c.28,0,.42-.14.7-.28s.56-.42.98-.42c.28,0,.42-.28.7-.28.14-.14.28-.14.42-.14s.14,0,.14-.14h.14v-.14c.14-.14.42-.14.7-.28q.14-.14.28-.14c.14,0,.14-.14.28-.14.28-.14.56-.14.84-.28s.42-.28.7-.28c.28-.14.42-.28.7-.28.28-.14.42-.14.7-.28s.42-.14.7-.28c.14,0,.14-.14.28-.14s.28.14.42,0c-.14-.14.14-.14.28-.14s.14-.14.28-.14c.14-.14.42-.28.7-.28.28-.14.56-.14.7-.28s.28-.14.42-.28c.14,0,.28,0,.42-.14.14-.14.28-.14.56-.28.14-.14.28-.14.56-.14.14-.14.42-.14.56-.28.14,0,.42,0,.56-.14,0,0,.42-.28.56-.28s.42-.14.56-.14c.56-.14,1.12-.42,1.68-.7.28-.14.56-.14.84-.28s1.54-.42,1.82-.56c.56-.28,1.12-.42,1.68-.56.28-.14.56-.28.84-.28.28-.14.56-.14.98-.28.56-.14,1.12-.28,1.68-.56.28-.14.56-.14.84-.28.42-.14.84-.28,1.26-.42.42-.28.98-.42,1.4-.56.14-.14.42-.14.56-.28s1.12-.56,1.26-.7c.28-.14.42-.28.7-.42.42-.28.84-.7,1.26-.84,0,0,.14-.14.28-.14,0-.14.14-.28.28-.42.14-.14.42-.14.28-.28.14-.14.14,0,.28-.28.14-.14.28-.14.42-.28.14-.28.42-.42.42-.7.14-.28.28-.28.42-.56,0-.14.14-.28.14-.42s.14-.28.14-.28c0,0,0-.14.14-.14h.14s.14.28.28.14c0-.14-.14-.28-.14-.42s.14-.14.14-.14v-.28c.14,0,.28-.14.28-.28h0c-.14-.14.14-.7.28-.42v.14c.14,0,.14-.14.14-.14v-.28c0-.14.14-.14.14-.28v-.42c0-.14.28-.14.42-.14s.28-.14.28-.28c-6.42-2.65-6.56-2.65-6.7-2.65M111.74,254.43l9.5,22.2h-4.47l-2.09-5.03h-9.77l-2.09,5.03h-4.33l9.5-22.2h3.77ZM113.28,267.97l-3.49-8.38-3.49,8.38h6.98ZM143.02,265.74c-.56-.56-1.4-.98-2.23-1.26-.84-.28-1.82-.7-2.93-.98-.84-.14-1.54-.42-2.23-.56s-1.12-.42-1.54-.56c-.42-.28-.7-.56-.98-.84s-.28-.7-.28-1.12c0-.84.28-1.4.84-1.82.56-.42,1.54-.7,2.65-.7.7,0,1.4.14,1.95.28.7.14,1.26.42,1.82.56.56.28.98.42,1.4.7s.7.42.84.56l1.95-3.49c-.98-.7-2.09-1.26-3.49-1.68-1.26-.42-2.79-.7-4.33-.7-1.12,0-2.23.14-3.21.42-.98.28-1.82.7-2.65,1.4-.7.56-1.26,1.26-1.68,2.23-.42.84-.56,1.82-.56,3.07,0,.84.14,1.54.42,2.23.28.56.7,1.12,1.12,1.68.56.42,1.12.84,1.95,1.26.84.28,1.68.7,2.79.98.84.28,1.68.42,2.37.7.7.14,1.26.42,1.82.7.56.28.84.56,1.12.84s.42.7.42,1.26c0,1.54-1.26,2.23-3.63,2.23-.84,0-1.68-.14-2.51-.28s-1.54-.42-2.23-.84c-.7-.28-1.26-.56-1.68-.98-.56-.28-.84-.56-.98-.7l-1.95,3.77c1.26.98,2.79,1.68,4.33,2.09s3.35.7,5.03.7c1.12,0,2.09-.14,3.07-.42.98-.28,1.82-.56,2.65-1.12s1.4-1.26,1.82-2.09.7-1.82.7-3.07c0-.98-.14-1.95-.56-2.65-.28-.7-.7-1.26-1.4-1.82"/>
    </g>
  </g>
</svg>