<svg xmlns="http://www.w3.org/2000/svg" width="74.783" height="74.86" viewBox="0 0 74.783 74.86">
  <defs>
    <style>
      .cls-1 {
        fill: none;
        stroke: #e10a0a;
        stroke-width: 4px;
      }
    </style>
  </defs>
  <path id="website-cookies-icon" class="cls-1" d="M81.6,46.417A17.667,17.667,0,0,1,64.124,28.75a17.667,17.667,0,0,1-17.694-17.5,18.159,18.159,0,0,0-10.922,1.775l-9.557,4.86a18.159,18.159,0,0,0-7.973,7.973l-4.942,9.639a18.486,18.486,0,0,0-1.775,11.2l1.666,10.54a18.3,18.3,0,0,0,5.161,10.076L25.65,74.9A18.322,18.322,0,0,0,35.7,80L46.293,81.7a18.268,18.268,0,0,0,11.059-1.884l9.557-4.86a18.213,18.213,0,0,0,7.973-8l4.942-9.612A18.24,18.24,0,0,0,81.6,46.417ZM35.507,61.9a4.424,4.424,0,1,1,4.424-4.424A4.424,4.424,0,0,1,35.507,61.9Zm4.424-22.118a4.356,4.356,0,1,0-.137,0ZM62.049,57.476a4.556,4.556,0,1,0-.137,0Z" transform="translate(-9.026 -9.034)"/>
</svg>
